<?xml version="1.0" standalone="no"?>
<!DOCTYPE svg PUBLIC "-//W3C//DTD SVG 1.1//EN"
  "http://www.w3.org/Graphics/SVG/1.1/DTD/svg11.dtd">
<!-- Created with matplotlib (http://matplotlib.sourceforge.net/) -->
<svg width="609" height="618" viewBox="14 10 406 412"
   xmlns="http://www.w3.org/2000/svg"
   xmlns:xlink="http://www.w3.org/1999/xlink"
   version="1.1">
<g id="figure1">
<g id="patch1">
<path style="fill: #ffffff; stroke: #ffffff; stroke-width: 1; stroke-linejoin: round; stroke-linecap: square;  opacity: 1"  d="M0 432L432 432L432 0
L0 0z"/>
</g>
<g id="axes1">
<g id="patch2">
<path style="fill: #ffffff; opacity: 1"  d="M216 380.16
C259.535741 380.16 301.294232 362.863067 332.078649 332.078649
C362.863067 301.294232 380.16 259.535741 380.16 216
C380.16 172.464259 362.863067 130.705768 332.078649 99.921351
C301.294232 69.136933 259.535741 51.84 216 51.84
C172.464259 51.84 130.705768 69.136933 99.921351 99.921351
C69.136933 130.705768 51.84 172.464259 51.84 216
C51.84 259.535741 69.136933 301.294232 99.921351 332.078649
C130.705768 362.863067 172.464259 380.16 216 380.160000z"/>
</g>
<g id="line2d1">
<defs>
  <clipPath id="p91050d1cdd555b86f61031037728a0dc">
<path d="M216 380.16
C259.535741 380.16 301.294232 362.863067 332.078649 332.078649
C362.863067 301.294232 380.16 259.535741 380.16 216
C380.16 172.464259 362.863067 130.705768 332.078649 99.921351
C301.294232 69.136933 259.535741 51.84 216 51.84
C172.464259 51.84 130.705768 69.136933 99.921351 99.921351
C69.136933 130.705768 51.84 172.464259 51.84 216
C51.84 259.535741 69.136933 301.294232 99.921351 332.078649
C130.705768 362.863067 172.464259 380.16 216 380.160000z"/>
  </clipPath>
</defs><path style="fill: none; stroke: #ee8d18; stroke-width: 3; stroke-linejoin: round; stroke-linecap: square;  opacity: 1" clip-path="url(#p91050d1cdd555b86f61031037728a0dc)" d="M216 216L216.819180 215.948462L217.628655 215.794253
L219.180052 215.183501L220.578963 214.187060L221.754180 212.836613
L222.640411 211.175459L223.180049 209.257485L223.324767 207.145878
L223.036906 204.911610L222.722198 203.772367L222.290634 202.631723
L221.740976 201.499950L221.072823 200.387456L220.286618 199.304726
L219.383657 198.262250L218.366091 197.270462L217.236923 196.339672
L216 195.480000L214.66 194.701311L213.222415 194.013151
L211.693528 193.424681L210.080385 192.944621L208.390766 192.581184
L206.633144 192.342023L204.816651 192.234175L202.951027 192.264007
L201.046574 192.437172L199.114105 192.758560L197.164886 193.232258
L195.210578 193.861514L193.263177 194.648702L191.334946 195.595293
L189.438354 196.701835L187.586001 197.967928L185.790554 199.392217
L184.064672 200.972375L182.420936 202.705108L180.871777 204.586148
L179.429399 206.610266L178.105715 208.771279L176.912268 211.062071
L175.860163 213.474616L174.96 216L174.221803 218.628461
L173.654957 221.349423L173.268147 224.151537L173.069295 227.022732
L173.065505 229.950263L173.263010 232.920771L173.667123 235.920340
L174.282194 238.934558L175.111563 241.948591L176.157531 244.947248
L177.421327 247.915054L178.903078 250.836328L180.601795 253.695259
L182.515353 256.475985L184.640481 259.162675L186.972762 261.739608
L189.506631 264.191259L192.235384 266.502379L195.151192 268.658077
L198.245120 270.643903L201.507149 272.445927L204.926214 274.050819
L208.490233 275.445926L212.186154 276.619345L216 277.56
L219.916923 278.257706L223.921261 278.703237L227.996601 278.888387
L232.125848 278.806032L236.291292 278.450175L240.474687 277.816004
L244.657331 276.899928L248.820144 275.699619L252.943757 274.214046
L257.008601 272.443498L260.994995 270.389605L264.883235 268.055358
L268.653696 265.445111L272.286917 262.564587L275.763703 259.420872
L279.065217 256.022404L282.173072 252.378954L285.069430 248.501607
L287.737091 244.402723L290.159583 240.095909L292.321254 235.595967
L294.207353 230.918851L295.804119 226.081605L297.098854 221.102307
L298.08 216L298.737214 210.794616L299.061430 205.506901
L299.044922 200.158334L298.681358 194.771035L297.965855 189.367679
L296.895017 183.971397L295.466979 178.605678L293.681432 173.294271
L291.539655 168.061077L289.044526 162.930045L286.200537 157.925065
L283.013794 153.069858L279.492018 148.387868L275.644528 143.902151
L271.482226 139.635268L267.017569 135.609174L262.264540 131.845115
L257.238598 128.363519L251.956639 125.183896L246.436938 122.324737
L240.699084 119.803420L234.763915 117.636112L228.653443 115.837687
L222.390769 114.421638L216 113.400000L209.506154 112.783277
L202.935063 112.580376L196.313269 112.798544L189.667919 113.443315
L183.026651 114.518465L176.417481 116.025969L169.868687 117.965970
L163.408686 120.336754L157.065911 123.134736L150.868692 126.354445
L144.845125 129.988531L139.022952 134.027769L133.429432 138.461075
L128.091220 143.275532L123.034239 148.456421L118.283565 153.987265
L113.863302 159.849875L109.796468 166.024411L106.104882 172.489445
L102.809058 179.222033L99.928093 186.197800L97.479578 193.391020
L95.479493 200.774719L93.942130 208.320770L92.88 216
L92.303769 223.782307L92.222182 231.636775L92.642010 239.531795
L93.567989 247.435198L95.002786 255.314378L96.946956 263.136435
L99.398919 270.868304L102.354941 278.476900L105.809127 285.929255
L109.753416 293.192662L114.1776 300.234815L119.069333 307.023955
L124.414169 313.529004L130.195592 319.719712L136.395068 325.566790
L142.992099 331.042044L149.964290 336.118511L157.287420 340.770584
L164.935529 344.974131L172.881005 348.706622L181.094683 351.947233
L189.545956 354.676957L198.202881 356.878700L207.032308 358.537379
L216 359.640000L225.070769 360.175740L234.208613 360.136011
L243.376860 359.514525L252.538314 358.307337L261.655407 356.512894
L270.690351 354.132058L279.605295 351.168132L288.362485 347.626872
L296.924421 343.516482L305.254015 338.847613L313.314756 333.633332
L321.070861 327.889103L328.487440 321.632738L335.530644 314.884348
L342.167818 307.666286L348.367653 300.003067L354.100324 291.921296
L359.337635 283.449571L364.053145 274.618387L368.222302 265.460024
L371.822559 256.008433L374.833491 246.299109L377.236894 236.368957
L379.016887 226.256153L380.16 216L380.655248 205.640770
L380.494205 195.219549L379.671059 184.778076L378.182664 174.358569
L376.028574 164.003564L373.211071 153.755734L369.735183 143.657714
L365.608685 133.751930L360.842092 124.080414L355.448641 114.684632
L349.444264 105.605304L342.847539 96.882232L335.679644 88.554123
L327.964289 80.658424L319.727639 73.231153L310.998233 66.306738
L301.806881 59.917863L292.186562 54.095314L282.172303 48.867842
L271.801053 44.262019L261.111550 40.302114L250.144173 37.009975
L238.940795 34.404912L227.544615 32.503604L216 31.32
L204.352308 30.865243L192.647711 31.147601L180.933011 32.172406
L169.255453 33.942010L157.662536 36.455747L146.201818 39.709915
L134.920723 43.697766L123.866344 48.409502L113.085248 53.832299
L102.623278 59.950330L92.525364 66.744804L82.835325 74.194024
L73.595687 82.273449L64.847493 90.955771L56.630124 100.211008
L48.981129 110.006601L41.936049 120.307533L35.528263 131.076447
L29.788828 142.273782L24.746339 153.857918L20.426788 165.785334
L16.853440 178.010762L14.046719 190.487368L12.024096 203.166924
L10.80 216L10.385735 228.936153L10.789408 241.924127
L12.015872 254.912054L14.066683 267.847663L16.940067 280.678493
L20.630902 293.352098L25.130715 305.816268L30.427689 318.019241
L36.506690 329.909918L43.349301 341.438075L50.933873 352.554576
L59.235588 363.211581L68.226542 373.362749L77.875831 382.963439
L88.149654 391.970904L99.011436 400.344480L110.421948 408.045764
L122.339456 415.038788L134.719866 421.290185L147.516890 426.769341
L160.682217 431.448539L166.109327 433M292.320486 433
L300.906014 430.448112L314.553259 425.436337L327.904827 419.554124
L340.905084 412.818919L353.499428 405.251727L365.634517 396.877059
L377.258488 387.722848L388.321185 377.820364L398.774371 367.204110
L408.571933 355.911699L417.670089 343.983730L426.027577 331.463637
L433 319.442096L433 319.442096"/>
</g>
<g id="matplotlib.axis1">
<g id="xtick1">
<g id="line2d2">
<path style="fill: none; stroke: #000000; stroke-width: 1; stroke-linejoin: round; stroke-linecap: square;  opacity: 1" clip-path="url(#p91050d1cdd555b86f61031037728a0dc)" d="M216 216L380.16 216"/>
</g>
<g id="text1">
<defs>
<path id="URW_Palladio_L_Roman-48" d="M13.156250 35
C5.406250 35 1.453125 28.75 1.453125 16.468750
C1.453125 10.531250 2.50 5.390625 4.25 2.906250
C6 0.406250 8.796875 -1 11.906250 -1
C19.453125 -1 23.25 5.593750 23.25 18.609375
C23.25 29.718750 20 35 13.156250 35
M12.25 33.218750
C17.093750 33.218750 19.046875 28.25 19.046875 16.0625
C19.046875 5.25 17.156250 0.781250 12.546875 0.781250
C7.703125 0.781250 5.656250 5.906250 5.656250 18.296875
C5.656250 29 7.50 33.218750 12.25 33.218750"/>
</defs>
<g style="fill: #000000; opacity: 1" transform="translate(391.594680,222.844268)scale(0.400000,-0.400000)">
<use xlink:href="#URW_Palladio_L_Roman-48" y="0.325012" transform="scale(0.996264)"/>
</g><!-- style -->
</g>
</g>
<g id="xtick2">
<g id="line2d3">
<path style="fill: none; stroke: #000000; stroke-width: 1; stroke-linejoin: round; stroke-linecap: square;  opacity: 1" clip-path="url(#p91050d1cdd555b86f61031037728a0dc)" d="M216 216L332.078649 99.921351"/>
</g>
<g id="text2">
<defs>
<path id="Pazo_Math_Italic-112" d="M4.796875 16.984375L5.25 17.3125
C6.296875 20.234375 8.296875 20.390625 11.156250 20.390625
C11.75 20.390625 12.656250 20.390625 13.703125 20.390625
C9.50 9.140625 7.593750 5.718750 3.546875 -0.546875L4 -1
L7.703125 0.265625
C9.50 4.093750 12.546875 11.531250 15.296875 20.140625
L24.593750 20.140625
C23.75 17.046875 20.843750 8.046875 20.843750 4.859375
C20.843750 -0.359375 22.75 -1 24.296875 -1
C26.843750 -1 28.296875 -0.359375 31.453125 2.281250
L31.046875 3.218750L29.843750 2.375
C30 2.484375 28.546875 1.343750 27.703125 1.343750
C25.343750 1.343750 24.656250 2.781250 24.656250 5.859375
C24.656250 7.109375 24.75 8.453125 25.046875 9.906250
C25.906250 14.015625 26.75 18.109375 27.203125 20.140625
C28.343750 20.140625 29.50 20.140625 30.656250 20.140625
C31.546875 20.140625 32.656250 20.656250 33.453125 20.953125
C34 22.015625 34.203125 22.109375 35.156250 23.343750
L34.796875 23.953125
C33.453125 23.50 31.203125 23 29.546875 23
C28.953125 23 27.703125 23 26.453125 23
C21.093750 23 12.843750 23 10.656250 23
C6.906250 23 5.546875 21.468750 4.093750 17.375000z"/>
<path id="URW_Palladio_L_Roman-48" d="M13.156250 35
C5.406250 35 1.453125 28.75 1.453125 16.468750
C1.453125 10.531250 2.50 5.390625 4.25 2.906250
C6 0.406250 8.796875 -1 11.906250 -1
C19.453125 -1 23.25 5.593750 23.25 18.609375
C23.25 29.718750 20 35 13.156250 35
M12.25 33.218750
C17.093750 33.218750 19.046875 28.25 19.046875 16.0625
C19.046875 5.25 17.156250 0.781250 12.546875 0.781250
C7.703125 0.781250 5.656250 5.906250 5.656250 18.296875
C5.656250 29 7.50 33.218750 12.25 33.218750"/>
<path id="URW_Palladio_L_Roman-52" d="M14 9L14 5.265625
C14 2.296875 13.453125 1.593750 11 1.593750L7.906250 1.593750
L7.906250 0C14.546875 0 14.546875 0 15.75 0
C16.953125 0 16.953125 0 23.593750 0
L23.593750 1.593750L21.203125 1.593750
C18.75 1.593750 18.203125 2.25 18.203125 5.25
L18.203125 9
C21.156250 9 22.203125 9 23.593750 8.859375
L23.593750 12.484375
C21.25 12.281250 20.296875 12.281250 19.546875 12.281250
L19.406250 12.281250L18.203125 12.281250L18.203125 19.406250
C18.203125 28.531250 18.296875 32.953125 18.546875 35.046875
L17.953125 35.312500L14.25 33.921875L0.093750 10.171875
L0.656250 9zM14 12.281250L3.25 12.281250
L14 30.343750z"/>
</defs>
<g style="fill: #000000; opacity: 1" transform="translate(338.174507,99.457859)scale(0.400000,-0.400000)">
<use xlink:href="#Pazo_Math_Italic-112" x="0.624972" y="48.943743" transform="scale(0.757155)"/>
<use xlink:href="#URW_Palladio_L_Roman-52" x="5.699721" y="0.324994" transform="scale(0.757155)"/>
<path d="M0 28.888662L27.560026 28.888662L27.560026 30.881174
L0 30.881174L0 28.888662z"/>
</g><!-- style -->
</g>
</g>
<g id="xtick3">
<g id="line2d4">
<path style="fill: none; stroke: #000000; stroke-width: 1; stroke-linejoin: round; stroke-linecap: square;  opacity: 1" clip-path="url(#p91050d1cdd555b86f61031037728a0dc)" d="M216 216L216 51.840000"/>
</g>
<g id="text3">
<defs>
<path id="Pazo_Math_Italic-112" d="M4.796875 16.984375L5.25 17.3125
C6.296875 20.234375 8.296875 20.390625 11.156250 20.390625
C11.75 20.390625 12.656250 20.390625 13.703125 20.390625
C9.50 9.140625 7.593750 5.718750 3.546875 -0.546875L4 -1
L7.703125 0.265625
C9.50 4.093750 12.546875 11.531250 15.296875 20.140625
L24.593750 20.140625
C23.75 17.046875 20.843750 8.046875 20.843750 4.859375
C20.843750 -0.359375 22.75 -1 24.296875 -1
C26.843750 -1 28.296875 -0.359375 31.453125 2.281250
L31.046875 3.218750L29.843750 2.375
C30 2.484375 28.546875 1.343750 27.703125 1.343750
C25.343750 1.343750 24.656250 2.781250 24.656250 5.859375
C24.656250 7.109375 24.75 8.453125 25.046875 9.906250
C25.906250 14.015625 26.75 18.109375 27.203125 20.140625
C28.343750 20.140625 29.50 20.140625 30.656250 20.140625
C31.546875 20.140625 32.656250 20.656250 33.453125 20.953125
C34 22.015625 34.203125 22.109375 35.156250 23.343750
L34.796875 23.953125
C33.453125 23.50 31.203125 23 29.546875 23
C28.953125 23 27.703125 23 26.453125 23
C21.093750 23 12.843750 23 10.656250 23
C6.906250 23 5.546875 21.468750 4.093750 17.375000z"/>
<path id="URW_Palladio_L_Roman-50" d="M0.796875 1.281250L0.796875 0
C10.156250 0 10.156250 0 11.953125 0
C13.75 0 13.75 0 23.406250 0
C23.296875 1.015625 23.296875 1.484375 23.296875 2.156250
C23.296875 2.781250 23.296875 3.265625 23.406250 4.3125
C17.656250 4.3125 15.343750 4.3125 6.093750 4.3125
L15.203125 13.984375
C20.046875 19.156250 21.546875 21.921875 21.546875 25.671875
C21.546875 31.453125 17.656250 35 11.296875 35
C7.703125 35 5.25 34 2.796875 31.453125
L1.953125 24.562500L3.406250 24.562500L4.046875 26.875
C4.843750 29.796875 6.656250 31.0625 10 31.0625
C14.296875 31.0625 17.046875 28.328125 17.046875 24.031250
C17.046875 20.234375 14.953125 16.50 9.296875 10.437500z"/>
<path id="URW_Palladio_L_Roman-48" d="M13.156250 35
C5.406250 35 1.453125 28.75 1.453125 16.468750
C1.453125 10.531250 2.50 5.390625 4.25 2.906250
C6 0.406250 8.796875 -1 11.906250 -1
C19.453125 -1 23.25 5.593750 23.25 18.609375
C23.25 29.718750 20 35 13.156250 35
M12.25 33.218750
C17.093750 33.218750 19.046875 28.25 19.046875 16.0625
C19.046875 5.25 17.156250 0.781250 12.546875 0.781250
C7.703125 0.781250 5.656250 5.906250 5.656250 18.296875
C5.656250 29 7.50 33.218750 12.25 33.218750"/>
<path id="URW_Palladio_L_Roman-52" d="M14 9L14 5.265625
C14 2.296875 13.453125 1.593750 11 1.593750L7.906250 1.593750
L7.906250 0C14.546875 0 14.546875 0 15.75 0
C16.953125 0 16.953125 0 23.593750 0
L23.593750 1.593750L21.203125 1.593750
C18.75 1.593750 18.203125 2.25 18.203125 5.25
L18.203125 9
C21.156250 9 22.203125 9 23.593750 8.859375
L23.593750 12.484375
C21.25 12.281250 20.296875 12.281250 19.546875 12.281250
L19.406250 12.281250L18.203125 12.281250L18.203125 19.406250
C18.203125 28.531250 18.296875 32.953125 18.546875 35.046875
L17.953125 35.312500L14.25 33.921875L0.093750 10.171875
L0.656250 9zM14 12.281250L3.25 12.281250
L14 30.343750z"/>
</defs>
<g style="fill: #000000; opacity: 1" transform="translate(210.487993,46.568373)scale(0.400000,-0.400000)">
<use xlink:href="#Pazo_Math_Italic-112" x="0.624972" y="48.943743" transform="scale(0.757155)"/>
<use xlink:href="#URW_Palladio_L_Roman-50" x="5.699721" y="0.324994" transform="scale(0.757155)"/>
<path d="M0 28.888662L27.560026 28.888662L27.560026 30.881174
L0 30.881174L0 28.888662z"/>
</g><!-- style -->
</g>
</g>
<g id="xtick4">
<g id="line2d5">
<path style="fill: none; stroke: #000000; stroke-width: 1; stroke-linejoin: round; stroke-linecap: square;  opacity: 1" clip-path="url(#p91050d1cdd555b86f61031037728a0dc)" d="M216 216L99.921351 99.921351"/>
</g>
<g id="text4">
<defs>
<path id="Pazo_Math_Italic-112" d="M4.796875 16.984375L5.25 17.3125
C6.296875 20.234375 8.296875 20.390625 11.156250 20.390625
C11.75 20.390625 12.656250 20.390625 13.703125 20.390625
C9.50 9.140625 7.593750 5.718750 3.546875 -0.546875L4 -1
L7.703125 0.265625
C9.50 4.093750 12.546875 11.531250 15.296875 20.140625
L24.593750 20.140625
C23.75 17.046875 20.843750 8.046875 20.843750 4.859375
C20.843750 -0.359375 22.75 -1 24.296875 -1
C26.843750 -1 28.296875 -0.359375 31.453125 2.281250
L31.046875 3.218750L29.843750 2.375
C30 2.484375 28.546875 1.343750 27.703125 1.343750
C25.343750 1.343750 24.656250 2.781250 24.656250 5.859375
C24.656250 7.109375 24.75 8.453125 25.046875 9.906250
C25.906250 14.015625 26.75 18.109375 27.203125 20.140625
C28.343750 20.140625 29.50 20.140625 30.656250 20.140625
C31.546875 20.140625 32.656250 20.656250 33.453125 20.953125
C34 22.015625 34.203125 22.109375 35.156250 23.343750
L34.796875 23.953125
C33.453125 23.50 31.203125 23 29.546875 23
C28.953125 23 27.703125 23 26.453125 23
C21.093750 23 12.843750 23 10.656250 23
C6.906250 23 5.546875 21.468750 4.093750 17.375000z"/>
<path id="URW_Palladio_L_Roman-51" d="M2.156250 25.531250L3.703125 25.531250L4.593750 28.453125
C5.156250 30.218750 8.296875 32 10.906250 32
C14.156250 32 16.796875 29.218750 16.796875 25.9375
C16.796875 22.015625 13.843750 18.734375 10.296875 18.734375
C9.906250 18.734375 9.343750 18.734375 8.703125 18.734375
L7.953125 18.734375L7.343750 16.187500L7.703125 15.875
C9.593750 16.734375 10.546875 17 11.906250 17
C16.046875 17 18.453125 14.296875 18.453125 9.671875
C18.453125 4.50 15.406250 1.093750 10.75 1.093750
C8.453125 1.093750 6.406250 1.859375 4.906250 3.281250
C3.703125 4.406250 3.046875 5.5625 2.093750 8.312500L0.75 7.796875
C1.796875 4.6875 2.203125 2.859375 2.50 0.328125
C5.156250 -0.593750 7.343750 -1 9.203125 -1
C13.203125 -1 17.796875 1.281250 20.546875 4.6875
C22.25 6.781250 23.093750 9.031250 23.093750 11.421875
C23.093750 13.859375 22.093750 15.984375 20.296875 17.265625
C19.046875 18.171875 17.906250 18.578125 15.406250 19.046875
C19.406250 22.265625 20.906250 24.656250 20.906250 27.734375
C20.906250 32.359375 17.203125 35.421875 11.656250 35.421875
C8.25 35.421875 6 34.4375 3.593750 31.953125z"/>
<path id="URW_Palladio_L_Roman-50" d="M0.796875 1.281250L0.796875 0
C10.156250 0 10.156250 0 11.953125 0
C13.75 0 13.75 0 23.406250 0
C23.296875 1.015625 23.296875 1.484375 23.296875 2.156250
C23.296875 2.781250 23.296875 3.265625 23.406250 4.3125
C17.656250 4.3125 15.343750 4.3125 6.093750 4.3125
L15.203125 13.984375
C20.046875 19.156250 21.546875 21.921875 21.546875 25.671875
C21.546875 31.453125 17.656250 35 11.296875 35
C7.703125 35 5.25 34 2.796875 31.453125
L1.953125 24.562500L3.406250 24.562500L4.046875 26.875
C4.843750 29.796875 6.656250 31.0625 10 31.0625
C14.296875 31.0625 17.046875 28.328125 17.046875 24.031250
C17.046875 20.234375 14.953125 16.50 9.296875 10.437500z"/>
<path id="URW_Palladio_L_Roman-48" d="M13.156250 35
C5.406250 35 1.453125 28.75 1.453125 16.468750
C1.453125 10.531250 2.50 5.390625 4.25 2.906250
C6 0.406250 8.796875 -1 11.906250 -1
C19.453125 -1 23.25 5.593750 23.25 18.609375
C23.25 29.718750 20 35 13.156250 35
M12.25 33.218750
C17.093750 33.218750 19.046875 28.25 19.046875 16.0625
C19.046875 5.25 17.156250 0.781250 12.546875 0.781250
C7.703125 0.781250 5.656250 5.906250 5.656250 18.296875
C5.656250 29 7.50 33.218750 12.25 33.218750"/>
<path id="URW_Palladio_L_Roman-52" d="M14 9L14 5.265625
C14 2.296875 13.453125 1.593750 11 1.593750L7.906250 1.593750
L7.906250 0C14.546875 0 14.546875 0 15.75 0
C16.953125 0 16.953125 0 23.593750 0
L23.593750 1.593750L21.203125 1.593750
C18.75 1.593750 18.203125 2.25 18.203125 5.25
L18.203125 9
C21.156250 9 22.203125 9 23.593750 8.859375
L23.593750 12.484375
C21.25 12.281250 20.296875 12.281250 19.546875 12.281250
L19.406250 12.281250L18.203125 12.281250L18.203125 19.406250
C18.203125 28.531250 18.296875 32.953125 18.546875 35.046875
L17.953125 35.312500L14.25 33.921875L0.093750 10.171875
L0.656250 9zM14 12.281250L3.25 12.281250
L14 30.343750z"/>
</defs>
<g style="fill: #000000; opacity: 1" transform="translate(79.015703,100.877470)scale(0.400000,-0.400000)">
<use xlink:href="#URW_Palladio_L_Roman-51" y="48.943743" transform="scale(0.757155)"/>
<use xlink:href="#Pazo_Math_Italic-112" x="25.624972" y="48.943743" transform="scale(0.757155)"/>
<use xlink:href="#URW_Palladio_L_Roman-52" x="18.199731" y="0.324994" transform="scale(0.757155)"/>
<path d="M0 28.888662L46.488905 28.888662L46.488905 30.881174
L0 30.881174L0 28.888662z"/>
</g><!-- style -->
</g>
</g>
<g id="xtick5">
<g id="line2d6">
<path style="fill: none; stroke: #000000; stroke-width: 1; stroke-linejoin: round; stroke-linecap: square;  opacity: 1" clip-path="url(#p91050d1cdd555b86f61031037728a0dc)" d="M216 216L51.84 216"/>
</g>
<g id="text5">
<defs>
<path id="Pazo_Math_Italic-112" d="M4.796875 16.984375L5.25 17.3125
C6.296875 20.234375 8.296875 20.390625 11.156250 20.390625
C11.75 20.390625 12.656250 20.390625 13.703125 20.390625
C9.50 9.140625 7.593750 5.718750 3.546875 -0.546875L4 -1
L7.703125 0.265625
C9.50 4.093750 12.546875 11.531250 15.296875 20.140625
L24.593750 20.140625
C23.75 17.046875 20.843750 8.046875 20.843750 4.859375
C20.843750 -0.359375 22.75 -1 24.296875 -1
C26.843750 -1 28.296875 -0.359375 31.453125 2.281250
L31.046875 3.218750L29.843750 2.375
C30 2.484375 28.546875 1.343750 27.703125 1.343750
C25.343750 1.343750 24.656250 2.781250 24.656250 5.859375
C24.656250 7.109375 24.75 8.453125 25.046875 9.906250
C25.906250 14.015625 26.75 18.109375 27.203125 20.140625
C28.343750 20.140625 29.50 20.140625 30.656250 20.140625
C31.546875 20.140625 32.656250 20.656250 33.453125 20.953125
C34 22.015625 34.203125 22.109375 35.156250 23.343750
L34.796875 23.953125
C33.453125 23.50 31.203125 23 29.546875 23
C28.953125 23 27.703125 23 26.453125 23
C21.093750 23 12.843750 23 10.656250 23
C6.906250 23 5.546875 21.468750 4.093750 17.375000z"/>
<path id="URW_Palladio_L_Roman-51" d="M2.156250 25.531250L3.703125 25.531250L4.593750 28.453125
C5.156250 30.218750 8.296875 32 10.906250 32
C14.156250 32 16.796875 29.218750 16.796875 25.9375
C16.796875 22.015625 13.843750 18.734375 10.296875 18.734375
C9.906250 18.734375 9.343750 18.734375 8.703125 18.734375
L7.953125 18.734375L7.343750 16.187500L7.703125 15.875
C9.593750 16.734375 10.546875 17 11.906250 17
C16.046875 17 18.453125 14.296875 18.453125 9.671875
C18.453125 4.50 15.406250 1.093750 10.75 1.093750
C8.453125 1.093750 6.406250 1.859375 4.906250 3.281250
C3.703125 4.406250 3.046875 5.5625 2.093750 8.312500L0.75 7.796875
C1.796875 4.6875 2.203125 2.859375 2.50 0.328125
C5.156250 -0.593750 7.343750 -1 9.203125 -1
C13.203125 -1 17.796875 1.281250 20.546875 4.6875
C22.25 6.781250 23.093750 9.031250 23.093750 11.421875
C23.093750 13.859375 22.093750 15.984375 20.296875 17.265625
C19.046875 18.171875 17.906250 18.578125 15.406250 19.046875
C19.406250 22.265625 20.906250 24.656250 20.906250 27.734375
C20.906250 32.359375 17.203125 35.421875 11.656250 35.421875
C8.25 35.421875 6 34.4375 3.593750 31.953125z"/>
<path id="URW_Palladio_L_Roman-50" d="M0.796875 1.281250L0.796875 0
C10.156250 0 10.156250 0 11.953125 0
C13.75 0 13.75 0 23.406250 0
C23.296875 1.015625 23.296875 1.484375 23.296875 2.156250
C23.296875 2.781250 23.296875 3.265625 23.406250 4.3125
C17.656250 4.3125 15.343750 4.3125 6.093750 4.3125
L15.203125 13.984375
C20.046875 19.156250 21.546875 21.921875 21.546875 25.671875
C21.546875 31.453125 17.656250 35 11.296875 35
C7.703125 35 5.25 34 2.796875 31.453125
L1.953125 24.562500L3.406250 24.562500L4.046875 26.875
C4.843750 29.796875 6.656250 31.0625 10 31.0625
C14.296875 31.0625 17.046875 28.328125 17.046875 24.031250
C17.046875 20.234375 14.953125 16.50 9.296875 10.437500z"/>
<path id="URW_Palladio_L_Roman-48" d="M13.156250 35
C5.406250 35 1.453125 28.75 1.453125 16.468750
C1.453125 10.531250 2.50 5.390625 4.25 2.906250
C6 0.406250 8.796875 -1 11.906250 -1
C19.453125 -1 23.25 5.593750 23.25 18.609375
C23.25 29.718750 20 35 13.156250 35
M12.25 33.218750
C17.093750 33.218750 19.046875 28.25 19.046875 16.0625
C19.046875 5.25 17.156250 0.781250 12.546875 0.781250
C7.703125 0.781250 5.656250 5.906250 5.656250 18.296875
C5.656250 29 7.50 33.218750 12.25 33.218750"/>
<path id="URW_Palladio_L_Roman-52" d="M14 9L14 5.265625
C14 2.296875 13.453125 1.593750 11 1.593750L7.906250 1.593750
L7.906250 0C14.546875 0 14.546875 0 15.75 0
C16.953125 0 16.953125 0 23.593750 0
L23.593750 1.593750L21.203125 1.593750
C18.75 1.593750 18.203125 2.25 18.203125 5.25
L18.203125 9
C21.156250 9 22.203125 9 23.593750 8.859375
L23.593750 12.484375
C21.25 12.281250 20.296875 12.281250 19.546875 12.281250
L19.406250 12.281250L18.203125 12.281250L18.203125 19.406250
C18.203125 28.531250 18.296875 32.953125 18.546875 35.046875
L17.953125 35.312500L14.25 33.921875L0.093750 10.171875
L0.656250 9zM14 12.281250L3.25 12.281250
L14 30.343750z"/>
</defs>
<g style="fill: #000000; opacity: 1" transform="translate(28.669331,221.021164)scale(0.400000,-0.400000)">
<use xlink:href="#Pazo_Math_Italic-112" y="0.549973" transform="scale(0.996264)"/>
</g><!-- style -->
</g>
</g>
<g id="xtick6">
<g id="line2d7">
<path style="fill: none; stroke: #000000; stroke-width: 1; stroke-linejoin: round; stroke-linecap: square;  opacity: 1" clip-path="url(#p91050d1cdd555b86f61031037728a0dc)" d="M216 216L99.921351 332.078649"/>
</g>
<g id="text6">
<defs>
<path id="URW_Palladio_L_Roman-48" d="M13.156250 35
C5.406250 35 1.453125 28.75 1.453125 16.468750
C1.453125 10.531250 2.50 5.390625 4.25 2.906250
C6 0.406250 8.796875 -1 11.906250 -1
C19.453125 -1 23.25 5.593750 23.25 18.609375
C23.25 29.718750 20 35 13.156250 35
M12.25 33.218750
C17.093750 33.218750 19.046875 28.25 19.046875 16.0625
C19.046875 5.25 17.156250 0.781250 12.546875 0.781250
C7.703125 0.781250 5.656250 5.906250 5.656250 18.296875
C5.656250 29 7.50 33.218750 12.25 33.218750"/>
<path id="Pazo_Math_Italic-112" d="M4.796875 16.984375L5.25 17.3125
C6.296875 20.234375 8.296875 20.390625 11.156250 20.390625
C11.75 20.390625 12.656250 20.390625 13.703125 20.390625
C9.50 9.140625 7.593750 5.718750 3.546875 -0.546875L4 -1
L7.703125 0.265625
C9.50 4.093750 12.546875 11.531250 15.296875 20.140625
L24.593750 20.140625
C23.75 17.046875 20.843750 8.046875 20.843750 4.859375
C20.843750 -0.359375 22.75 -1 24.296875 -1
C26.843750 -1 28.296875 -0.359375 31.453125 2.281250
L31.046875 3.218750L29.843750 2.375
C30 2.484375 28.546875 1.343750 27.703125 1.343750
C25.343750 1.343750 24.656250 2.781250 24.656250 5.859375
C24.656250 7.109375 24.75 8.453125 25.046875 9.906250
C25.906250 14.015625 26.75 18.109375 27.203125 20.140625
C28.343750 20.140625 29.50 20.140625 30.656250 20.140625
C31.546875 20.140625 32.656250 20.656250 33.453125 20.953125
C34 22.015625 34.203125 22.109375 35.156250 23.343750
L34.796875 23.953125
C33.453125 23.50 31.203125 23 29.546875 23
C28.953125 23 27.703125 23 26.453125 23
C21.093750 23 12.843750 23 10.656250 23
C6.906250 23 5.546875 21.468750 4.093750 17.375000z"/>
<path id="URW_Palladio_L_Roman-51" d="M2.156250 25.531250L3.703125 25.531250L4.593750 28.453125
C5.156250 30.218750 8.296875 32 10.906250 32
C14.156250 32 16.796875 29.218750 16.796875 25.9375
C16.796875 22.015625 13.843750 18.734375 10.296875 18.734375
C9.906250 18.734375 9.343750 18.734375 8.703125 18.734375
L7.953125 18.734375L7.343750 16.187500L7.703125 15.875
C9.593750 16.734375 10.546875 17 11.906250 17
C16.046875 17 18.453125 14.296875 18.453125 9.671875
C18.453125 4.50 15.406250 1.093750 10.75 1.093750
C8.453125 1.093750 6.406250 1.859375 4.906250 3.281250
C3.703125 4.406250 3.046875 5.5625 2.093750 8.312500L0.75 7.796875
C1.796875 4.6875 2.203125 2.859375 2.50 0.328125
C5.156250 -0.593750 7.343750 -1 9.203125 -1
C13.203125 -1 17.796875 1.281250 20.546875 4.6875
C22.25 6.781250 23.093750 9.031250 23.093750 11.421875
C23.093750 13.859375 22.093750 15.984375 20.296875 17.265625
C19.046875 18.171875 17.906250 18.578125 15.406250 19.046875
C19.406250 22.265625 20.906250 24.656250 20.906250 27.734375
C20.906250 32.359375 17.203125 35.421875 11.656250 35.421875
C8.25 35.421875 6 34.4375 3.593750 31.953125z"/>
<path id="URW_Palladio_L_Roman-50" d="M0.796875 1.281250L0.796875 0
C10.156250 0 10.156250 0 11.953125 0
C13.75 0 13.75 0 23.406250 0
C23.296875 1.015625 23.296875 1.484375 23.296875 2.156250
C23.296875 2.781250 23.296875 3.265625 23.406250 4.3125
C17.656250 4.3125 15.343750 4.3125 6.093750 4.3125
L15.203125 13.984375
C20.046875 19.156250 21.546875 21.921875 21.546875 25.671875
C21.546875 31.453125 17.656250 35 11.296875 35
C7.703125 35 5.25 34 2.796875 31.453125
L1.953125 24.562500L3.406250 24.562500L4.046875 26.875
C4.843750 29.796875 6.656250 31.0625 10 31.0625
C14.296875 31.0625 17.046875 28.328125 17.046875 24.031250
C17.046875 20.234375 14.953125 16.50 9.296875 10.437500z"/>
<path id="URW_Palladio_L_Roman-53" d="M6.343750 30.703125
C12.796875 30.703125 15.593750 30.703125 21.593750 30.703125
L21.843750 30.859375
C21.75 31.781250 21.75 32.1875 21.75 32.859375
C21.75 33.5625 21.75 33.968750 21.843750 34.890625
L21.593750 35
C17.843750 35 15.593750 35 12.906250 35
C10.156250 35 7.953125 35 4.203125 35
L3.953125 34.890625
C4 31.8125 4.046875 29.593750 4.046875 27.984375
C4.046875 23.703125 3.906250 18.875 3.75 16.640625
L4.75 16.328125
C7.093750 18.765625 8.453125 19.484375 10.906250 19.484375
C15.703125 19.484375 18.703125 15.968750 18.703125 10.375
C18.703125 4.656250 15.50 1.296875 10.046875 1.296875
C7.343750 1.296875 4.843750 2.234375 4.156250 3.578125L1.843750 7.8125
L0.656250 7.078125C1.796875 4.140625 2.406250 2.484375 3.093750 0.218750
C4.50 -0.546875 6.50 -1 8.656250 -1
C12 -1 15.546875 0.484375 18.296875 2.968750
C21.343750 5.734375 22.953125 9.25 22.953125 13.046875
C22.953125 18.890625 18.906250 23 13.203125 23
C10.796875 23 9 22.343750 5.906250 20.453125z"/>
<path id="URW_Palladio_L_Roman-52" d="M14 9L14 5.265625
C14 2.296875 13.453125 1.593750 11 1.593750L7.906250 1.593750
L7.906250 0C14.546875 0 14.546875 0 15.75 0
C16.953125 0 16.953125 0 23.593750 0
L23.593750 1.593750L21.203125 1.593750
C18.75 1.593750 18.203125 2.25 18.203125 5.25
L18.203125 9
C21.156250 9 22.203125 9 23.593750 8.859375
L23.593750 12.484375
C21.25 12.281250 20.296875 12.281250 19.546875 12.281250
L19.406250 12.281250L18.203125 12.281250L18.203125 19.406250
C18.203125 28.531250 18.296875 32.953125 18.546875 35.046875
L17.953125 35.312500L14.25 33.921875L0.093750 10.171875
L0.656250 9zM14 12.281250L3.25 12.281250
L14 30.343750z"/>
</defs>
<g style="fill: #000000; opacity: 1" transform="translate(79.015703,356.250498)scale(0.400000,-0.400000)">
<use xlink:href="#URW_Palladio_L_Roman-53" y="48.943743" transform="scale(0.757155)"/>
<use xlink:href="#Pazo_Math_Italic-112" x="25.624972" y="48.943743" transform="scale(0.757155)"/>
<use xlink:href="#URW_Palladio_L_Roman-52" x="18.199731" y="0.324994" transform="scale(0.757155)"/>
<path d="M0 28.888662L46.488905 28.888662L46.488905 30.881174
L0 30.881174L0 28.888662z"/>
</g><!-- style -->
</g>
</g>
<g id="xtick7">
<g id="line2d8">
<path style="fill: none; stroke: #000000; stroke-width: 1; stroke-linejoin: round; stroke-linecap: square;  opacity: 1" clip-path="url(#p91050d1cdd555b86f61031037728a0dc)" d="M216 216L216 380.160000"/>
</g>
<g id="text7">
<defs>
<path id="URW_Palladio_L_Roman-48" d="M13.156250 35
C5.406250 35 1.453125 28.75 1.453125 16.468750
C1.453125 10.531250 2.50 5.390625 4.25 2.906250
C6 0.406250 8.796875 -1 11.906250 -1
C19.453125 -1 23.25 5.593750 23.25 18.609375
C23.25 29.718750 20 35 13.156250 35
M12.25 33.218750
C17.093750 33.218750 19.046875 28.25 19.046875 16.0625
C19.046875 5.25 17.156250 0.781250 12.546875 0.781250
C7.703125 0.781250 5.656250 5.906250 5.656250 18.296875
C5.656250 29 7.50 33.218750 12.25 33.218750"/>
<path id="Pazo_Math_Italic-112" d="M4.796875 16.984375L5.25 17.3125
C6.296875 20.234375 8.296875 20.390625 11.156250 20.390625
C11.75 20.390625 12.656250 20.390625 13.703125 20.390625
C9.50 9.140625 7.593750 5.718750 3.546875 -0.546875L4 -1
L7.703125 0.265625
C9.50 4.093750 12.546875 11.531250 15.296875 20.140625
L24.593750 20.140625
C23.75 17.046875 20.843750 8.046875 20.843750 4.859375
C20.843750 -0.359375 22.75 -1 24.296875 -1
C26.843750 -1 28.296875 -0.359375 31.453125 2.281250
L31.046875 3.218750L29.843750 2.375
C30 2.484375 28.546875 1.343750 27.703125 1.343750
C25.343750 1.343750 24.656250 2.781250 24.656250 5.859375
C24.656250 7.109375 24.75 8.453125 25.046875 9.906250
C25.906250 14.015625 26.75 18.109375 27.203125 20.140625
C28.343750 20.140625 29.50 20.140625 30.656250 20.140625
C31.546875 20.140625 32.656250 20.656250 33.453125 20.953125
C34 22.015625 34.203125 22.109375 35.156250 23.343750
L34.796875 23.953125
C33.453125 23.50 31.203125 23 29.546875 23
C28.953125 23 27.703125 23 26.453125 23
C21.093750 23 12.843750 23 10.656250 23
C6.906250 23 5.546875 21.468750 4.093750 17.375000z"/>
<path id="URW_Palladio_L_Roman-51" d="M2.156250 25.531250L3.703125 25.531250L4.593750 28.453125
C5.156250 30.218750 8.296875 32 10.906250 32
C14.156250 32 16.796875 29.218750 16.796875 25.9375
C16.796875 22.015625 13.843750 18.734375 10.296875 18.734375
C9.906250 18.734375 9.343750 18.734375 8.703125 18.734375
L7.953125 18.734375L7.343750 16.187500L7.703125 15.875
C9.593750 16.734375 10.546875 17 11.906250 17
C16.046875 17 18.453125 14.296875 18.453125 9.671875
C18.453125 4.50 15.406250 1.093750 10.75 1.093750
C8.453125 1.093750 6.406250 1.859375 4.906250 3.281250
C3.703125 4.406250 3.046875 5.5625 2.093750 8.312500L0.75 7.796875
C1.796875 4.6875 2.203125 2.859375 2.50 0.328125
C5.156250 -0.593750 7.343750 -1 9.203125 -1
C13.203125 -1 17.796875 1.281250 20.546875 4.6875
C22.25 6.781250 23.093750 9.031250 23.093750 11.421875
C23.093750 13.859375 22.093750 15.984375 20.296875 17.265625
C19.046875 18.171875 17.906250 18.578125 15.406250 19.046875
C19.406250 22.265625 20.906250 24.656250 20.906250 27.734375
C20.906250 32.359375 17.203125 35.421875 11.656250 35.421875
C8.25 35.421875 6 34.4375 3.593750 31.953125z"/>
<path id="URW_Palladio_L_Roman-50" d="M0.796875 1.281250L0.796875 0
C10.156250 0 10.156250 0 11.953125 0
C13.75 0 13.75 0 23.406250 0
C23.296875 1.015625 23.296875 1.484375 23.296875 2.156250
C23.296875 2.781250 23.296875 3.265625 23.406250 4.3125
C17.656250 4.3125 15.343750 4.3125 6.093750 4.3125
L15.203125 13.984375
C20.046875 19.156250 21.546875 21.921875 21.546875 25.671875
C21.546875 31.453125 17.656250 35 11.296875 35
C7.703125 35 5.25 34 2.796875 31.453125
L1.953125 24.562500L3.406250 24.562500L4.046875 26.875
C4.843750 29.796875 6.656250 31.0625 10 31.0625
C14.296875 31.0625 17.046875 28.328125 17.046875 24.031250
C17.046875 20.234375 14.953125 16.50 9.296875 10.437500z"/>
<path id="URW_Palladio_L_Roman-53" d="M6.343750 30.703125
C12.796875 30.703125 15.593750 30.703125 21.593750 30.703125
L21.843750 30.859375
C21.75 31.781250 21.75 32.1875 21.75 32.859375
C21.75 33.5625 21.75 33.968750 21.843750 34.890625
L21.593750 35
C17.843750 35 15.593750 35 12.906250 35
C10.156250 35 7.953125 35 4.203125 35
L3.953125 34.890625
C4 31.8125 4.046875 29.593750 4.046875 27.984375
C4.046875 23.703125 3.906250 18.875 3.75 16.640625
L4.75 16.328125
C7.093750 18.765625 8.453125 19.484375 10.906250 19.484375
C15.703125 19.484375 18.703125 15.968750 18.703125 10.375
C18.703125 4.656250 15.50 1.296875 10.046875 1.296875
C7.343750 1.296875 4.843750 2.234375 4.156250 3.578125L1.843750 7.8125
L0.656250 7.078125C1.796875 4.140625 2.406250 2.484375 3.093750 0.218750
C4.50 -0.546875 6.50 -1 8.656250 -1
C12 -1 15.546875 0.484375 18.296875 2.968750
C21.343750 5.734375 22.953125 9.25 22.953125 13.046875
C22.953125 18.890625 18.906250 23 13.203125 23
C10.796875 23 9 22.343750 5.906250 20.453125z"/>
<path id="URW_Palladio_L_Roman-52" d="M14 9L14 5.265625
C14 2.296875 13.453125 1.593750 11 1.593750L7.906250 1.593750
L7.906250 0C14.546875 0 14.546875 0 15.75 0
C16.953125 0 16.953125 0 23.593750 0
L23.593750 1.593750L21.203125 1.593750
C18.75 1.593750 18.203125 2.25 18.203125 5.25
L18.203125 9
C21.156250 9 22.203125 9 23.593750 8.859375
L23.593750 12.484375
C21.25 12.281250 20.296875 12.281250 19.546875 12.281250
L19.406250 12.281250L18.203125 12.281250L18.203125 19.406250
C18.203125 28.531250 18.296875 32.953125 18.546875 35.046875
L17.953125 35.312500L14.25 33.921875L0.093750 10.171875
L0.656250 9zM14 12.281250L3.25 12.281250
L14 30.343750z"/>
</defs>
<g style="fill: #000000; opacity: 1" transform="translate(206.702217,409.139984)scale(0.400000,-0.400000)">
<use xlink:href="#URW_Palladio_L_Roman-51" y="48.943743" transform="scale(0.757155)"/>
<use xlink:href="#Pazo_Math_Italic-112" x="25.624972" y="48.943743" transform="scale(0.757155)"/>
<use xlink:href="#URW_Palladio_L_Roman-50" x="18.199731" y="0.324994" transform="scale(0.757155)"/>
<path d="M0 28.888662L46.488905 28.888662L46.488905 30.881174
L0 30.881174L0 28.888662z"/>
</g><!-- style -->
</g>
</g>
<g id="xtick8">
<g id="line2d9">
<path style="fill: none; stroke: #000000; stroke-width: 1; stroke-linejoin: round; stroke-linecap: square;  opacity: 1" clip-path="url(#p91050d1cdd555b86f61031037728a0dc)" d="M216 216L332.078649 332.078649"/>
</g>
<g id="text8">
<defs>
<path id="URW_Palladio_L_Roman-48" d="M13.156250 35
C5.406250 35 1.453125 28.75 1.453125 16.468750
C1.453125 10.531250 2.50 5.390625 4.25 2.906250
C6 0.406250 8.796875 -1 11.906250 -1
C19.453125 -1 23.25 5.593750 23.25 18.609375
C23.25 29.718750 20 35 13.156250 35
M12.25 33.218750
C17.093750 33.218750 19.046875 28.25 19.046875 16.0625
C19.046875 5.25 17.156250 0.781250 12.546875 0.781250
C7.703125 0.781250 5.656250 5.906250 5.656250 18.296875
C5.656250 29 7.50 33.218750 12.25 33.218750"/>
<path id="URW_Palladio_L_Roman-55" d="M2.796875 0.515625L3.25 -0.156250
C5.203125 0 5.203125 0 5.546875 0
C5.906250 0 5.906250 0 7.843750 -0.156250
C9.953125 5.4375 12.406250 10.796875 15.703125 16.968750
L24.843750 33.859375L24.843750 35.234375
C19.453125 35.234375 17.703125 35.234375 13.656250 35.234375
C10 35.234375 7.546875 35.234375 2.703125 35.234375
L2.203125 35.125
C2.343750 30.265625 2.343750 30.265625 2.343750 29.734375
C2.343750 29.171875 2.343750 29.171875 2.203125 24.515625
L3.703125 24.515625L4.046875 27.390625
C4.453125 30.578125 4.796875 31 7.093750 31
L20.453125 31
C18.453125 26.781250 16.906250 23.796875 15 20.656250z"/>
<path id="Pazo_Math_Italic-112" d="M4.796875 16.984375L5.25 17.3125
C6.296875 20.234375 8.296875 20.390625 11.156250 20.390625
C11.75 20.390625 12.656250 20.390625 13.703125 20.390625
C9.50 9.140625 7.593750 5.718750 3.546875 -0.546875L4 -1
L7.703125 0.265625
C9.50 4.093750 12.546875 11.531250 15.296875 20.140625
L24.593750 20.140625
C23.75 17.046875 20.843750 8.046875 20.843750 4.859375
C20.843750 -0.359375 22.75 -1 24.296875 -1
C26.843750 -1 28.296875 -0.359375 31.453125 2.281250
L31.046875 3.218750L29.843750 2.375
C30 2.484375 28.546875 1.343750 27.703125 1.343750
C25.343750 1.343750 24.656250 2.781250 24.656250 5.859375
C24.656250 7.109375 24.75 8.453125 25.046875 9.906250
C25.906250 14.015625 26.75 18.109375 27.203125 20.140625
C28.343750 20.140625 29.50 20.140625 30.656250 20.140625
C31.546875 20.140625 32.656250 20.656250 33.453125 20.953125
C34 22.015625 34.203125 22.109375 35.156250 23.343750
L34.796875 23.953125
C33.453125 23.50 31.203125 23 29.546875 23
C28.953125 23 27.703125 23 26.453125 23
C21.093750 23 12.843750 23 10.656250 23
C6.906250 23 5.546875 21.468750 4.093750 17.375000z"/>
<path id="URW_Palladio_L_Roman-51" d="M2.156250 25.531250L3.703125 25.531250L4.593750 28.453125
C5.156250 30.218750 8.296875 32 10.906250 32
C14.156250 32 16.796875 29.218750 16.796875 25.9375
C16.796875 22.015625 13.843750 18.734375 10.296875 18.734375
C9.906250 18.734375 9.343750 18.734375 8.703125 18.734375
L7.953125 18.734375L7.343750 16.187500L7.703125 15.875
C9.593750 16.734375 10.546875 17 11.906250 17
C16.046875 17 18.453125 14.296875 18.453125 9.671875
C18.453125 4.50 15.406250 1.093750 10.75 1.093750
C8.453125 1.093750 6.406250 1.859375 4.906250 3.281250
C3.703125 4.406250 3.046875 5.5625 2.093750 8.312500L0.75 7.796875
C1.796875 4.6875 2.203125 2.859375 2.50 0.328125
C5.156250 -0.593750 7.343750 -1 9.203125 -1
C13.203125 -1 17.796875 1.281250 20.546875 4.6875
C22.25 6.781250 23.093750 9.031250 23.093750 11.421875
C23.093750 13.859375 22.093750 15.984375 20.296875 17.265625
C19.046875 18.171875 17.906250 18.578125 15.406250 19.046875
C19.406250 22.265625 20.906250 24.656250 20.906250 27.734375
C20.906250 32.359375 17.203125 35.421875 11.656250 35.421875
C8.25 35.421875 6 34.4375 3.593750 31.953125z"/>
<path id="URW_Palladio_L_Roman-50" d="M0.796875 1.281250L0.796875 0
C10.156250 0 10.156250 0 11.953125 0
C13.75 0 13.75 0 23.406250 0
C23.296875 1.015625 23.296875 1.484375 23.296875 2.156250
C23.296875 2.781250 23.296875 3.265625 23.406250 4.3125
C17.656250 4.3125 15.343750 4.3125 6.093750 4.3125
L15.203125 13.984375
C20.046875 19.156250 21.546875 21.921875 21.546875 25.671875
C21.546875 31.453125 17.656250 35 11.296875 35
C7.703125 35 5.25 34 2.796875 31.453125
L1.953125 24.562500L3.406250 24.562500L4.046875 26.875
C4.843750 29.796875 6.656250 31.0625 10 31.0625
C14.296875 31.0625 17.046875 28.328125 17.046875 24.031250
C17.046875 20.234375 14.953125 16.50 9.296875 10.437500z"/>
<path id="URW_Palladio_L_Roman-53" d="M6.343750 30.703125
C12.796875 30.703125 15.593750 30.703125 21.593750 30.703125
L21.843750 30.859375
C21.75 31.781250 21.75 32.1875 21.75 32.859375
C21.75 33.5625 21.75 33.968750 21.843750 34.890625
L21.593750 35
C17.843750 35 15.593750 35 12.906250 35
C10.156250 35 7.953125 35 4.203125 35
L3.953125 34.890625
C4 31.8125 4.046875 29.593750 4.046875 27.984375
C4.046875 23.703125 3.906250 18.875 3.75 16.640625
L4.75 16.328125
C7.093750 18.765625 8.453125 19.484375 10.906250 19.484375
C15.703125 19.484375 18.703125 15.968750 18.703125 10.375
C18.703125 4.656250 15.50 1.296875 10.046875 1.296875
C7.343750 1.296875 4.843750 2.234375 4.156250 3.578125L1.843750 7.8125
L0.656250 7.078125C1.796875 4.140625 2.406250 2.484375 3.093750 0.218750
C4.50 -0.546875 6.50 -1 8.656250 -1
C12 -1 15.546875 0.484375 18.296875 2.968750
C21.343750 5.734375 22.953125 9.25 22.953125 13.046875
C22.953125 18.890625 18.906250 23 13.203125 23
C10.796875 23 9 22.343750 5.906250 20.453125z"/>
<path id="URW_Palladio_L_Roman-52" d="M14 9L14 5.265625
C14 2.296875 13.453125 1.593750 11 1.593750L7.906250 1.593750
L7.906250 0C14.546875 0 14.546875 0 15.75 0
C16.953125 0 16.953125 0 23.593750 0
L23.593750 1.593750L21.203125 1.593750
C18.75 1.593750 18.203125 2.25 18.203125 5.25
L18.203125 9
C21.156250 9 22.203125 9 23.593750 8.859375
L23.593750 12.484375
C21.25 12.281250 20.296875 12.281250 19.546875 12.281250
L19.406250 12.281250L18.203125 12.281250L18.203125 19.406250
C18.203125 28.531250 18.296875 32.953125 18.546875 35.046875
L17.953125 35.312500L14.25 33.921875L0.093750 10.171875
L0.656250 9zM14 12.281250L3.25 12.281250
L14 30.343750z"/>
</defs>
<g style="fill: #000000; opacity: 1" transform="translate(334.388732,356.250498)scale(0.400000,-0.400000)">
<use xlink:href="#URW_Palladio_L_Roman-55" y="48.943743" transform="scale(0.757155)"/>
<use xlink:href="#Pazo_Math_Italic-112" x="25.624972" y="48.943743" transform="scale(0.757155)"/>
<use xlink:href="#URW_Palladio_L_Roman-52" x="18.199731" y="0.324994" transform="scale(0.757155)"/>
<path d="M0 28.888662L46.488905 28.888662L46.488905 30.881174
L0 30.881174L0 28.888662z"/>
</g><!-- style -->
</g>
</g>
</g>
<g id="matplotlib.axis2">
<g id="ytick1">
<g id="line2d10">
<path style="fill: none; stroke: #000000; stroke-width: 1; stroke-linejoin: round; stroke-linecap: square;  opacity: 1" clip-path="url(#p91050d1cdd555b86f61031037728a0dc)" d="M257.04 216L257.015 214.567725L256.940029 213.137194
L256.640602 210.288336L256.143178 207.467304L255.450180 204.687843
L254.564985 201.963493L253.491906 199.307528L252.236169 196.732887
L250.803894 194.252113L249.202057 191.877293L247.438464 189.619996
L245.521705 187.491220L243.461120 185.501336L241.266747 183.660039
L238.949277 181.976298L236.52 180.458317L233.990752 179.113492
L231.373855 177.948375L228.682057 176.968641L225.928475 176.179063
L223.126521 175.583490L220.289848 175.184821L217.432275 174.985
L214.567725 174.985000L211.710152 175.184821L208.873479 175.583490
L206.071525 176.179063L203.317943 176.968641L200.626145 177.948375
L198.009248 179.113492L195.48 180.458317L193.050723 181.976298
L190.733253 183.660039L188.538880 185.501336L186.478295 187.491220
L184.561536 189.619996L182.797943 191.877293L181.196106 194.252113
L179.763831 196.732887L178.508094 199.307528L177.435015 201.963493
L176.549820 204.687843L175.856822 207.467304L175.359398 210.288336
L175.059971 213.137194L174.96 216L175.059971 218.862806
L175.359398 221.711664L175.856822 224.532696L176.549820 227.312157
L177.435015 230.036507L178.508094 232.692472L179.763831 235.267113
L181.196106 237.747887L182.797943 240.122707L184.561536 242.380004
L186.478295 244.508780L188.538880 246.498664L190.733253 248.339961
L193.050723 250.023702L195.48 251.541683L198.009248 252.886508
L200.626145 254.051625L203.317943 255.031359L206.071525 255.820937
L208.873479 256.416510L211.710152 256.815179L214.567725 257.015
L217.432275 257.015000L220.289848 256.815179L223.126521 256.416510
L225.928475 255.820937L228.682057 255.031359L231.373855 254.051625
L233.990752 252.886508L236.52 251.541683L238.949277 250.023702
L241.266747 248.339961L243.461120 246.498664L245.521705 244.508780
L247.438464 242.380004L249.202057 240.122707L250.803894 237.747887
L252.236169 235.267113L253.491906 232.692472L254.564985 230.036507
L255.450180 227.312157L256.143178 224.532696L256.640602 221.711664
L256.940029 218.862806L257.04 216L257.04 216"/>
</g>
<g id="text9">
<defs>
<path id="URW_Palladio_L_Roman-48" d="M13.156250 35
C5.406250 35 1.453125 28.75 1.453125 16.468750
C1.453125 10.531250 2.50 5.390625 4.25 2.906250
C6 0.406250 8.796875 -1 11.906250 -1
C19.453125 -1 23.25 5.593750 23.25 18.609375
C23.25 29.718750 20 35 13.156250 35
M12.25 33.218750
C17.093750 33.218750 19.046875 28.25 19.046875 16.0625
C19.046875 5.25 17.156250 0.781250 12.546875 0.781250
C7.703125 0.781250 5.656250 5.906250 5.656250 18.296875
C5.656250 29 7.50 33.218750 12.25 33.218750"/>
<path id="URW_Palladio_L_Roman-49" d="M3.343750 28.500000L3.843750 28.500000L10.296875 31.4375
C10.343750 31.50 10.406250 31.50 10.453125 31.50
C10.75 31.50 10.843750 31.031250 10.843750 29.8125
L10.843750 4.875000C10.843750 2.203125 10.296875 1.640625 7.593750 1.640625
L4.796875 1.640625L4.796875 0
C12.50 0 12.50 0 13.046875 0
C13.703125 0 14.796875 0 16.50 0
C17.093750 0 18.843750 0 20.906250 0
L20.906250 1.640625L18.296875 1.640625
C15.546875 1.640625 15.046875 2.203125 15.046875 4.875
L15.046875 35.328125L14.343750 35.593750
C11.093750 33.843750 7.546875 32.328125 3 30.687500z"/>
<path id="URW_Palladio_L_Roman-55" d="M2.796875 0.515625L3.25 -0.156250
C5.203125 0 5.203125 0 5.546875 0
C5.906250 0 5.906250 0 7.843750 -0.156250
C9.953125 5.4375 12.406250 10.796875 15.703125 16.968750
L24.843750 33.859375L24.843750 35.234375
C19.453125 35.234375 17.703125 35.234375 13.656250 35.234375
C10 35.234375 7.546875 35.234375 2.703125 35.234375
L2.203125 35.125
C2.343750 30.265625 2.343750 30.265625 2.343750 29.734375
C2.343750 29.171875 2.343750 29.171875 2.203125 24.515625
L3.703125 24.515625L4.046875 27.390625
C4.453125 30.578125 4.796875 31 7.093750 31
L20.453125 31
C18.453125 26.781250 16.906250 23.796875 15 20.656250z"/>
<path id="Pazo_Math_Italic-112" d="M4.796875 16.984375L5.25 17.3125
C6.296875 20.234375 8.296875 20.390625 11.156250 20.390625
C11.75 20.390625 12.656250 20.390625 13.703125 20.390625
C9.50 9.140625 7.593750 5.718750 3.546875 -0.546875L4 -1
L7.703125 0.265625
C9.50 4.093750 12.546875 11.531250 15.296875 20.140625
L24.593750 20.140625
C23.75 17.046875 20.843750 8.046875 20.843750 4.859375
C20.843750 -0.359375 22.75 -1 24.296875 -1
C26.843750 -1 28.296875 -0.359375 31.453125 2.281250
L31.046875 3.218750L29.843750 2.375
C30 2.484375 28.546875 1.343750 27.703125 1.343750
C25.343750 1.343750 24.656250 2.781250 24.656250 5.859375
C24.656250 7.109375 24.75 8.453125 25.046875 9.906250
C25.906250 14.015625 26.75 18.109375 27.203125 20.140625
C28.343750 20.140625 29.50 20.140625 30.656250 20.140625
C31.546875 20.140625 32.656250 20.656250 33.453125 20.953125
C34 22.015625 34.203125 22.109375 35.156250 23.343750
L34.796875 23.953125
C33.453125 23.50 31.203125 23 29.546875 23
C28.953125 23 27.703125 23 26.453125 23
C21.093750 23 12.843750 23 10.656250 23
C6.906250 23 5.546875 21.468750 4.093750 17.375000z"/>
<path id="URW_Palladio_L_Roman-51" d="M2.156250 25.531250L3.703125 25.531250L4.593750 28.453125
C5.156250 30.218750 8.296875 32 10.906250 32
C14.156250 32 16.796875 29.218750 16.796875 25.9375
C16.796875 22.015625 13.843750 18.734375 10.296875 18.734375
C9.906250 18.734375 9.343750 18.734375 8.703125 18.734375
L7.953125 18.734375L7.343750 16.187500L7.703125 15.875
C9.593750 16.734375 10.546875 17 11.906250 17
C16.046875 17 18.453125 14.296875 18.453125 9.671875
C18.453125 4.50 15.406250 1.093750 10.75 1.093750
C8.453125 1.093750 6.406250 1.859375 4.906250 3.281250
C3.703125 4.406250 3.046875 5.5625 2.093750 8.312500L0.75 7.796875
C1.796875 4.6875 2.203125 2.859375 2.50 0.328125
C5.156250 -0.593750 7.343750 -1 9.203125 -1
C13.203125 -1 17.796875 1.281250 20.546875 4.6875
C22.25 6.781250 23.093750 9.031250 23.093750 11.421875
C23.093750 13.859375 22.093750 15.984375 20.296875 17.265625
C19.046875 18.171875 17.906250 18.578125 15.406250 19.046875
C19.406250 22.265625 20.906250 24.656250 20.906250 27.734375
C20.906250 32.359375 17.203125 35.421875 11.656250 35.421875
C8.25 35.421875 6 34.4375 3.593750 31.953125z"/>
<path id="URW_Palladio_L_Roman-50" d="M0.796875 1.281250L0.796875 0
C10.156250 0 10.156250 0 11.953125 0
C13.75 0 13.75 0 23.406250 0
C23.296875 1.015625 23.296875 1.484375 23.296875 2.156250
C23.296875 2.781250 23.296875 3.265625 23.406250 4.3125
C17.656250 4.3125 15.343750 4.3125 6.093750 4.3125
L15.203125 13.984375
C20.046875 19.156250 21.546875 21.921875 21.546875 25.671875
C21.546875 31.453125 17.656250 35 11.296875 35
C7.703125 35 5.25 34 2.796875 31.453125
L1.953125 24.562500L3.406250 24.562500L4.046875 26.875
C4.843750 29.796875 6.656250 31.0625 10 31.0625
C14.296875 31.0625 17.046875 28.328125 17.046875 24.031250
C17.046875 20.234375 14.953125 16.50 9.296875 10.437500z"/>
<path id="URW_Palladio_L_Roman-53" d="M6.343750 30.703125
C12.796875 30.703125 15.593750 30.703125 21.593750 30.703125
L21.843750 30.859375
C21.75 31.781250 21.75 32.1875 21.75 32.859375
C21.75 33.5625 21.75 33.968750 21.843750 34.890625
L21.593750 35
C17.843750 35 15.593750 35 12.906250 35
C10.156250 35 7.953125 35 4.203125 35
L3.953125 34.890625
C4 31.8125 4.046875 29.593750 4.046875 27.984375
C4.046875 23.703125 3.906250 18.875 3.75 16.640625
L4.75 16.328125
C7.093750 18.765625 8.453125 19.484375 10.906250 19.484375
C15.703125 19.484375 18.703125 15.968750 18.703125 10.375
C18.703125 4.656250 15.50 1.296875 10.046875 1.296875
C7.343750 1.296875 4.843750 2.234375 4.156250 3.578125L1.843750 7.8125
L0.656250 7.078125C1.796875 4.140625 2.406250 2.484375 3.093750 0.218750
C4.50 -0.546875 6.50 -1 8.656250 -1
C12 -1 15.546875 0.484375 18.296875 2.968750
C21.343750 5.734375 22.953125 9.25 22.953125 13.046875
C22.953125 18.890625 18.906250 23 13.203125 23
C10.796875 23 9 22.343750 5.906250 20.453125z"/>
<path id="URW_Palladio_L_Roman-52" d="M14 9L14 5.265625
C14 2.296875 13.453125 1.593750 11 1.593750L7.906250 1.593750
L7.906250 0C14.546875 0 14.546875 0 15.75 0
C16.953125 0 16.953125 0 23.593750 0
L23.593750 1.593750L21.203125 1.593750
C18.75 1.593750 18.203125 2.25 18.203125 5.25
L18.203125 9
C21.156250 9 22.203125 9 23.593750 8.859375
L23.593750 12.484375
C21.25 12.281250 20.296875 12.281250 19.546875 12.281250
L19.406250 12.281250L18.203125 12.281250L18.203125 19.406250
C18.203125 28.531250 18.296875 32.953125 18.546875 35.046875
L17.953125 35.312500L14.25 33.921875L0.093750 10.171875
L0.656250 9zM14 12.281250L3.25 12.281250
L14 30.343750z"/>
</defs>
<g style="fill: #000000; opacity: 1" transform="translate(257.713443,209.717591)scale(0.400000,-0.400000)">
<use xlink:href="#URW_Palladio_L_Roman-49" y="48.943743" transform="scale(0.757155)"/>
<use xlink:href="#URW_Palladio_L_Roman-50" y="0.324994" transform="scale(0.757155)"/>
<path d="M0 28.888662L18.928879 28.888662L18.928879 30.881174
L0 30.881174L0 28.888662z"/>
</g><!-- style -->
</g>
</g>
<g id="ytick2">
<g id="line2d11">
<path style="fill: none; stroke: #000000; stroke-width: 1; stroke-linejoin: round; stroke-linecap: square;  opacity: 1" clip-path="url(#p91050d1cdd555b86f61031037728a0dc)" d="M298.08 216L298.029999 213.135449L297.880057 210.274389
L297.281203 204.576672L296.286355 198.934608L294.900360 193.375686
L293.129970 187.926987L290.983811 182.615056L288.472338 177.465774
L285.607788 172.504227L282.404115 167.754586L278.876928 163.239993
L275.043411 158.982441L270.922240 155.002673L266.533494 151.320077
L261.898554 147.952596L257.04 144.916635L251.981504 142.226985
L246.747709 139.896749L241.364115 137.937281L235.856949 136.358127
L230.253042 135.166980L224.579696 134.369643L218.864551 133.970001
L213.135449 133.970001L207.420304 134.369643L201.746958 135.166980
L196.143051 136.358127L190.635885 137.937281L185.252291 139.896749
L180.018496 142.226985L174.96 144.916635L170.101446 147.952596
L165.466506 151.320077L161.077760 155.002673L156.956589 158.982441
L153.123072 163.239993L149.595885 167.754586L146.392212 172.504227
L143.527662 177.465774L141.016189 182.615056L138.870030 187.926987
L137.099640 193.375686L135.713645 198.934608L134.718797 204.576672
L134.119943 210.274389L133.92 216L134.119943 221.725611
L134.718797 227.423328L135.713645 233.065392L137.099640 238.624314
L138.870030 244.073013L141.016189 249.384944L143.527662 254.534226
L146.392212 259.495773L149.595885 264.245414L153.123072 268.760007
L156.956589 273.017559L161.077760 276.997327L165.466506 280.679923
L170.101446 284.047404L174.96 287.083365L180.018496 289.773015
L185.252291 292.103251L190.635885 294.062719L196.143051 295.641873
L201.746958 296.833020L207.420304 297.630357L213.135449 298.029999
L218.864551 298.029999L224.579696 297.630357L230.253042 296.833020
L235.856949 295.641873L241.364115 294.062719L246.747709 292.103251
L251.981504 289.773015L257.04 287.083365L261.898554 284.047404
L266.533494 280.679923L270.922240 276.997327L275.043411 273.017559
L278.876928 268.760007L282.404115 264.245414L285.607788 259.495773
L288.472338 254.534226L290.983811 249.384944L293.129970 244.073013
L294.900360 238.624314L296.286355 233.065392L297.281203 227.423328
L297.880057 221.725611L298.08 216L298.08 216"/>
</g>
<g id="text10">
<defs>
<path id="URW_Palladio_L_Roman-48" d="M13.156250 35
C5.406250 35 1.453125 28.75 1.453125 16.468750
C1.453125 10.531250 2.50 5.390625 4.25 2.906250
C6 0.406250 8.796875 -1 11.906250 -1
C19.453125 -1 23.25 5.593750 23.25 18.609375
C23.25 29.718750 20 35 13.156250 35
M12.25 33.218750
C17.093750 33.218750 19.046875 28.25 19.046875 16.0625
C19.046875 5.25 17.156250 0.781250 12.546875 0.781250
C7.703125 0.781250 5.656250 5.906250 5.656250 18.296875
C5.656250 29 7.50 33.218750 12.25 33.218750"/>
<path id="URW_Palladio_L_Roman-49" d="M3.343750 28.500000L3.843750 28.500000L10.296875 31.4375
C10.343750 31.50 10.406250 31.50 10.453125 31.50
C10.75 31.50 10.843750 31.031250 10.843750 29.8125
L10.843750 4.875000C10.843750 2.203125 10.296875 1.640625 7.593750 1.640625
L4.796875 1.640625L4.796875 0
C12.50 0 12.50 0 13.046875 0
C13.703125 0 14.796875 0 16.50 0
C17.093750 0 18.843750 0 20.906250 0
L20.906250 1.640625L18.296875 1.640625
C15.546875 1.640625 15.046875 2.203125 15.046875 4.875
L15.046875 35.328125L14.343750 35.593750
C11.093750 33.843750 7.546875 32.328125 3 30.687500z"/>
<path id="URW_Palladio_L_Roman-55" d="M2.796875 0.515625L3.25 -0.156250
C5.203125 0 5.203125 0 5.546875 0
C5.906250 0 5.906250 0 7.843750 -0.156250
C9.953125 5.4375 12.406250 10.796875 15.703125 16.968750
L24.843750 33.859375L24.843750 35.234375
C19.453125 35.234375 17.703125 35.234375 13.656250 35.234375
C10 35.234375 7.546875 35.234375 2.703125 35.234375
L2.203125 35.125
C2.343750 30.265625 2.343750 30.265625 2.343750 29.734375
C2.343750 29.171875 2.343750 29.171875 2.203125 24.515625
L3.703125 24.515625L4.046875 27.390625
C4.453125 30.578125 4.796875 31 7.093750 31
L20.453125 31
C18.453125 26.781250 16.906250 23.796875 15 20.656250z"/>
<path id="Pazo_Math_Italic-112" d="M4.796875 16.984375L5.25 17.3125
C6.296875 20.234375 8.296875 20.390625 11.156250 20.390625
C11.75 20.390625 12.656250 20.390625 13.703125 20.390625
C9.50 9.140625 7.593750 5.718750 3.546875 -0.546875L4 -1
L7.703125 0.265625
C9.50 4.093750 12.546875 11.531250 15.296875 20.140625
L24.593750 20.140625
C23.75 17.046875 20.843750 8.046875 20.843750 4.859375
C20.843750 -0.359375 22.75 -1 24.296875 -1
C26.843750 -1 28.296875 -0.359375 31.453125 2.281250
L31.046875 3.218750L29.843750 2.375
C30 2.484375 28.546875 1.343750 27.703125 1.343750
C25.343750 1.343750 24.656250 2.781250 24.656250 5.859375
C24.656250 7.109375 24.75 8.453125 25.046875 9.906250
C25.906250 14.015625 26.75 18.109375 27.203125 20.140625
C28.343750 20.140625 29.50 20.140625 30.656250 20.140625
C31.546875 20.140625 32.656250 20.656250 33.453125 20.953125
C34 22.015625 34.203125 22.109375 35.156250 23.343750
L34.796875 23.953125
C33.453125 23.50 31.203125 23 29.546875 23
C28.953125 23 27.703125 23 26.453125 23
C21.093750 23 12.843750 23 10.656250 23
C6.906250 23 5.546875 21.468750 4.093750 17.375000z"/>
<path id="URW_Palladio_L_Roman-51" d="M2.156250 25.531250L3.703125 25.531250L4.593750 28.453125
C5.156250 30.218750 8.296875 32 10.906250 32
C14.156250 32 16.796875 29.218750 16.796875 25.9375
C16.796875 22.015625 13.843750 18.734375 10.296875 18.734375
C9.906250 18.734375 9.343750 18.734375 8.703125 18.734375
L7.953125 18.734375L7.343750 16.187500L7.703125 15.875
C9.593750 16.734375 10.546875 17 11.906250 17
C16.046875 17 18.453125 14.296875 18.453125 9.671875
C18.453125 4.50 15.406250 1.093750 10.75 1.093750
C8.453125 1.093750 6.406250 1.859375 4.906250 3.281250
C3.703125 4.406250 3.046875 5.5625 2.093750 8.312500L0.75 7.796875
C1.796875 4.6875 2.203125 2.859375 2.50 0.328125
C5.156250 -0.593750 7.343750 -1 9.203125 -1
C13.203125 -1 17.796875 1.281250 20.546875 4.6875
C22.25 6.781250 23.093750 9.031250 23.093750 11.421875
C23.093750 13.859375 22.093750 15.984375 20.296875 17.265625
C19.046875 18.171875 17.906250 18.578125 15.406250 19.046875
C19.406250 22.265625 20.906250 24.656250 20.906250 27.734375
C20.906250 32.359375 17.203125 35.421875 11.656250 35.421875
C8.25 35.421875 6 34.4375 3.593750 31.953125z"/>
<path id="URW_Palladio_L_Roman-50" d="M0.796875 1.281250L0.796875 0
C10.156250 0 10.156250 0 11.953125 0
C13.75 0 13.75 0 23.406250 0
C23.296875 1.015625 23.296875 1.484375 23.296875 2.156250
C23.296875 2.781250 23.296875 3.265625 23.406250 4.3125
C17.656250 4.3125 15.343750 4.3125 6.093750 4.3125
L15.203125 13.984375
C20.046875 19.156250 21.546875 21.921875 21.546875 25.671875
C21.546875 31.453125 17.656250 35 11.296875 35
C7.703125 35 5.25 34 2.796875 31.453125
L1.953125 24.562500L3.406250 24.562500L4.046875 26.875
C4.843750 29.796875 6.656250 31.0625 10 31.0625
C14.296875 31.0625 17.046875 28.328125 17.046875 24.031250
C17.046875 20.234375 14.953125 16.50 9.296875 10.437500z"/>
<path id="URW_Palladio_L_Roman-53" d="M6.343750 30.703125
C12.796875 30.703125 15.593750 30.703125 21.593750 30.703125
L21.843750 30.859375
C21.75 31.781250 21.75 32.1875 21.75 32.859375
C21.75 33.5625 21.75 33.968750 21.843750 34.890625
L21.593750 35
C17.843750 35 15.593750 35 12.906250 35
C10.156250 35 7.953125 35 4.203125 35
L3.953125 34.890625
C4 31.8125 4.046875 29.593750 4.046875 27.984375
C4.046875 23.703125 3.906250 18.875 3.75 16.640625
L4.75 16.328125
C7.093750 18.765625 8.453125 19.484375 10.906250 19.484375
C15.703125 19.484375 18.703125 15.968750 18.703125 10.375
C18.703125 4.656250 15.50 1.296875 10.046875 1.296875
C7.343750 1.296875 4.843750 2.234375 4.156250 3.578125L1.843750 7.8125
L0.656250 7.078125C1.796875 4.140625 2.406250 2.484375 3.093750 0.218750
C4.50 -0.546875 6.50 -1 8.656250 -1
C12 -1 15.546875 0.484375 18.296875 2.968750
C21.343750 5.734375 22.953125 9.25 22.953125 13.046875
C22.953125 18.890625 18.906250 23 13.203125 23
C10.796875 23 9 22.343750 5.906250 20.453125z"/>
<path id="URW_Palladio_L_Roman-52" d="M14 9L14 5.265625
C14 2.296875 13.453125 1.593750 11 1.593750L7.906250 1.593750
L7.906250 0C14.546875 0 14.546875 0 15.75 0
C16.953125 0 16.953125 0 23.593750 0
L23.593750 1.593750L21.203125 1.593750
C18.75 1.593750 18.203125 2.25 18.203125 5.25
L18.203125 9
C21.156250 9 22.203125 9 23.593750 8.859375
L23.593750 12.484375
C21.25 12.281250 20.296875 12.281250 19.546875 12.281250
L19.406250 12.281250L18.203125 12.281250L18.203125 19.406250
C18.203125 28.531250 18.296875 32.953125 18.546875 35.046875
L17.953125 35.312500L14.25 33.921875L0.093750 10.171875
L0.656250 9zM14 12.281250L3.25 12.281250
L14 30.343750z"/>
</defs>
<g style="fill: #000000; opacity: 1" transform="translate(294.433915,188.292546)scale(0.400000,-0.400000)">
<use xlink:href="#URW_Palladio_L_Roman-49" y="0.325012" transform="scale(0.996264)"/>
</g><!-- style -->
</g>
</g>
<g id="ytick3">
<g id="line2d12">
<path style="fill: none; stroke: #000000; stroke-width: 1; stroke-linejoin: round; stroke-linecap: square;  opacity: 1" clip-path="url(#p91050d1cdd555b86f61031037728a0dc)" d="M339.12 216L339.044999 211.703174L338.820086 207.411583
L338.445536 203.130456L337.921805 198.865008L337.249531 194.620436
L336.429533 190.401913L335.462810 186.214576L334.350540 182.063529
L333.094078 177.953828L331.694955 173.890480L330.154876 169.878436
L328.475717 165.922585L326.659523 162.027744L324.708508 158.198661
L322.625048 154.440000L320.411682 150.756340L318.071106 147.152170
L315.606172 143.631880L313.019884 140.199759L310.315392 136.859989
L307.495991 133.616640L304.565116 130.473661L301.526339 127.434884
L298.383360 124.504009L295.140011 121.684608L291.800241 118.980116
L288.368120 116.393828L284.847830 113.928894L281.243660 111.588318
L277.56 109.374952L273.801339 107.291492L269.972256 105.340477
L266.077415 103.524283L262.121564 101.845124L258.109520 100.305045
L254.046172 98.905922L249.936471 97.649460L245.785424 96.537190
L241.598087 95.570467L237.379564 94.750469L233.134992 94.078195
L228.869544 93.554464L224.588417 93.179914L220.296826 92.955001
L216 92.880000L211.703174 92.955001L207.411583 93.179914
L203.130456 93.554464L198.865008 94.078195L194.620436 94.750469
L190.401913 95.570467L186.214576 96.537190L182.063529 97.649460
L177.953828 98.905922L173.890480 100.305045L169.878436 101.845124
L165.922585 103.524283L162.027744 105.340477L158.198661 107.291492
L154.44 109.374952L150.756340 111.588318L147.152170 113.928894
L143.631880 116.393828L140.199759 118.980116L136.859989 121.684608
L133.616640 124.504009L130.473661 127.434884L127.434884 130.473661
L124.504009 133.616640L121.684608 136.859989L118.980116 140.199759
L116.393828 143.631880L113.928894 147.152170L111.588318 150.756340
L109.374952 154.440000L107.291492 158.198661L105.340477 162.027744
L103.524283 165.922585L101.845124 169.878436L100.305045 173.890480
L98.905922 177.953828L97.649460 182.063529L96.537190 186.214576
L95.570467 190.401913L94.750469 194.620436L94.078195 198.865008
L93.554464 203.130456L93.179914 207.411583L92.955001 211.703174
L92.88 216L92.955001 220.296826L93.179914 224.588417
L93.554464 228.869544L94.078195 233.134992L94.750469 237.379564
L95.570467 241.598087L96.537190 245.785424L97.649460 249.936471
L98.905922 254.046172L100.305045 258.109520L101.845124 262.121564
L103.524283 266.077415L105.340477 269.972256L107.291492 273.801339
L109.374952 277.560000L111.588318 281.243660L113.928894 284.847830
L116.393828 288.368120L118.980116 291.800241L121.684608 295.140011
L124.504009 298.383360L127.434884 301.526339L130.473661 304.565116
L133.616640 307.495991L136.859989 310.315392L140.199759 313.019884
L143.631880 315.606172L147.152170 318.071106L150.756340 320.411682
L154.44 322.625048L158.198661 324.708508L162.027744 326.659523
L165.922585 328.475717L169.878436 330.154876L173.890480 331.694955
L177.953828 333.094078L182.063529 334.350540L186.214576 335.462810
L190.401913 336.429533L194.620436 337.249531L198.865008 337.921805
L203.130456 338.445536L207.411583 338.820086L211.703174 339.044999
L216 339.120000L220.296826 339.044999L224.588417 338.820086
L228.869544 338.445536L233.134992 337.921805L237.379564 337.249531
L241.598087 336.429533L245.785424 335.462810L249.936471 334.350540
L254.046172 333.094078L258.109520 331.694955L262.121564 330.154876
L266.077415 328.475717L269.972256 326.659523L273.801339 324.708508
L277.56 322.625048L281.243660 320.411682L284.847830 318.071106
L288.368120 315.606172L291.800241 313.019884L295.140011 310.315392
L298.383360 307.495991L301.526339 304.565116L304.565116 301.526339
L307.495991 298.383360L310.315392 295.140011L313.019884 291.800241
L315.606172 288.368120L318.071106 284.847830L320.411682 281.243660
L322.625048 277.560000L324.708508 273.801339L326.659523 269.972256
L328.475717 266.077415L330.154876 262.121564L331.694955 258.109520
L333.094078 254.046172L334.350540 249.936471L335.462810 245.785424
L336.429533 241.598087L337.249531 237.379564L337.921805 233.134992
L338.445536 228.869544L338.820086 224.588417L339.044999 220.296826
L339.12 216L339.12 216"/>
</g>
<g id="text11">
<defs>
<path id="URW_Palladio_L_Roman-48" d="M13.156250 35
C5.406250 35 1.453125 28.75 1.453125 16.468750
C1.453125 10.531250 2.50 5.390625 4.25 2.906250
C6 0.406250 8.796875 -1 11.906250 -1
C19.453125 -1 23.25 5.593750 23.25 18.609375
C23.25 29.718750 20 35 13.156250 35
M12.25 33.218750
C17.093750 33.218750 19.046875 28.25 19.046875 16.0625
C19.046875 5.25 17.156250 0.781250 12.546875 0.781250
C7.703125 0.781250 5.656250 5.906250 5.656250 18.296875
C5.656250 29 7.50 33.218750 12.25 33.218750"/>
<path id="URW_Palladio_L_Roman-49" d="M3.343750 28.500000L3.843750 28.500000L10.296875 31.4375
C10.343750 31.50 10.406250 31.50 10.453125 31.50
C10.75 31.50 10.843750 31.031250 10.843750 29.8125
L10.843750 4.875000C10.843750 2.203125 10.296875 1.640625 7.593750 1.640625
L4.796875 1.640625L4.796875 0
C12.50 0 12.50 0 13.046875 0
C13.703125 0 14.796875 0 16.50 0
C17.093750 0 18.843750 0 20.906250 0
L20.906250 1.640625L18.296875 1.640625
C15.546875 1.640625 15.046875 2.203125 15.046875 4.875
L15.046875 35.328125L14.343750 35.593750
C11.093750 33.843750 7.546875 32.328125 3 30.687500z"/>
<path id="URW_Palladio_L_Roman-55" d="M2.796875 0.515625L3.25 -0.156250
C5.203125 0 5.203125 0 5.546875 0
C5.906250 0 5.906250 0 7.843750 -0.156250
C9.953125 5.4375 12.406250 10.796875 15.703125 16.968750
L24.843750 33.859375L24.843750 35.234375
C19.453125 35.234375 17.703125 35.234375 13.656250 35.234375
C10 35.234375 7.546875 35.234375 2.703125 35.234375
L2.203125 35.125
C2.343750 30.265625 2.343750 30.265625 2.343750 29.734375
C2.343750 29.171875 2.343750 29.171875 2.203125 24.515625
L3.703125 24.515625L4.046875 27.390625
C4.453125 30.578125 4.796875 31 7.093750 31
L20.453125 31
C18.453125 26.781250 16.906250 23.796875 15 20.656250z"/>
<path id="Pazo_Math_Italic-112" d="M4.796875 16.984375L5.25 17.3125
C6.296875 20.234375 8.296875 20.390625 11.156250 20.390625
C11.75 20.390625 12.656250 20.390625 13.703125 20.390625
C9.50 9.140625 7.593750 5.718750 3.546875 -0.546875L4 -1
L7.703125 0.265625
C9.50 4.093750 12.546875 11.531250 15.296875 20.140625
L24.593750 20.140625
C23.75 17.046875 20.843750 8.046875 20.843750 4.859375
C20.843750 -0.359375 22.75 -1 24.296875 -1
C26.843750 -1 28.296875 -0.359375 31.453125 2.281250
L31.046875 3.218750L29.843750 2.375
C30 2.484375 28.546875 1.343750 27.703125 1.343750
C25.343750 1.343750 24.656250 2.781250 24.656250 5.859375
C24.656250 7.109375 24.75 8.453125 25.046875 9.906250
C25.906250 14.015625 26.75 18.109375 27.203125 20.140625
C28.343750 20.140625 29.50 20.140625 30.656250 20.140625
C31.546875 20.140625 32.656250 20.656250 33.453125 20.953125
C34 22.015625 34.203125 22.109375 35.156250 23.343750
L34.796875 23.953125
C33.453125 23.50 31.203125 23 29.546875 23
C28.953125 23 27.703125 23 26.453125 23
C21.093750 23 12.843750 23 10.656250 23
C6.906250 23 5.546875 21.468750 4.093750 17.375000z"/>
<path id="URW_Palladio_L_Roman-51" d="M2.156250 25.531250L3.703125 25.531250L4.593750 28.453125
C5.156250 30.218750 8.296875 32 10.906250 32
C14.156250 32 16.796875 29.218750 16.796875 25.9375
C16.796875 22.015625 13.843750 18.734375 10.296875 18.734375
C9.906250 18.734375 9.343750 18.734375 8.703125 18.734375
L7.953125 18.734375L7.343750 16.187500L7.703125 15.875
C9.593750 16.734375 10.546875 17 11.906250 17
C16.046875 17 18.453125 14.296875 18.453125 9.671875
C18.453125 4.50 15.406250 1.093750 10.75 1.093750
C8.453125 1.093750 6.406250 1.859375 4.906250 3.281250
C3.703125 4.406250 3.046875 5.5625 2.093750 8.312500L0.75 7.796875
C1.796875 4.6875 2.203125 2.859375 2.50 0.328125
C5.156250 -0.593750 7.343750 -1 9.203125 -1
C13.203125 -1 17.796875 1.281250 20.546875 4.6875
C22.25 6.781250 23.093750 9.031250 23.093750 11.421875
C23.093750 13.859375 22.093750 15.984375 20.296875 17.265625
C19.046875 18.171875 17.906250 18.578125 15.406250 19.046875
C19.406250 22.265625 20.906250 24.656250 20.906250 27.734375
C20.906250 32.359375 17.203125 35.421875 11.656250 35.421875
C8.25 35.421875 6 34.4375 3.593750 31.953125z"/>
<path id="URW_Palladio_L_Roman-50" d="M0.796875 1.281250L0.796875 0
C10.156250 0 10.156250 0 11.953125 0
C13.75 0 13.75 0 23.406250 0
C23.296875 1.015625 23.296875 1.484375 23.296875 2.156250
C23.296875 2.781250 23.296875 3.265625 23.406250 4.3125
C17.656250 4.3125 15.343750 4.3125 6.093750 4.3125
L15.203125 13.984375
C20.046875 19.156250 21.546875 21.921875 21.546875 25.671875
C21.546875 31.453125 17.656250 35 11.296875 35
C7.703125 35 5.25 34 2.796875 31.453125
L1.953125 24.562500L3.406250 24.562500L4.046875 26.875
C4.843750 29.796875 6.656250 31.0625 10 31.0625
C14.296875 31.0625 17.046875 28.328125 17.046875 24.031250
C17.046875 20.234375 14.953125 16.50 9.296875 10.437500z"/>
<path id="URW_Palladio_L_Roman-53" d="M6.343750 30.703125
C12.796875 30.703125 15.593750 30.703125 21.593750 30.703125
L21.843750 30.859375
C21.75 31.781250 21.75 32.1875 21.75 32.859375
C21.75 33.5625 21.75 33.968750 21.843750 34.890625
L21.593750 35
C17.843750 35 15.593750 35 12.906250 35
C10.156250 35 7.953125 35 4.203125 35
L3.953125 34.890625
C4 31.8125 4.046875 29.593750 4.046875 27.984375
C4.046875 23.703125 3.906250 18.875 3.75 16.640625
L4.75 16.328125
C7.093750 18.765625 8.453125 19.484375 10.906250 19.484375
C15.703125 19.484375 18.703125 15.968750 18.703125 10.375
C18.703125 4.656250 15.50 1.296875 10.046875 1.296875
C7.343750 1.296875 4.843750 2.234375 4.156250 3.578125L1.843750 7.8125
L0.656250 7.078125C1.796875 4.140625 2.406250 2.484375 3.093750 0.218750
C4.50 -0.546875 6.50 -1 8.656250 -1
C12 -1 15.546875 0.484375 18.296875 2.968750
C21.343750 5.734375 22.953125 9.25 22.953125 13.046875
C22.953125 18.890625 18.906250 23 13.203125 23
C10.796875 23 9 22.343750 5.906250 20.453125z"/>
<path id="URW_Palladio_L_Roman-52" d="M14 9L14 5.265625
C14 2.296875 13.453125 1.593750 11 1.593750L7.906250 1.593750
L7.906250 0C14.546875 0 14.546875 0 15.75 0
C16.953125 0 16.953125 0 23.593750 0
L23.593750 1.593750L21.203125 1.593750
C18.75 1.593750 18.203125 2.25 18.203125 5.25
L18.203125 9
C21.156250 9 22.203125 9 23.593750 8.859375
L23.593750 12.484375
C21.25 12.281250 20.296875 12.281250 19.546875 12.281250
L19.406250 12.281250L18.203125 12.281250L18.203125 19.406250
C18.203125 28.531250 18.296875 32.953125 18.546875 35.046875
L17.953125 35.312500L14.25 33.921875L0.093750 10.171875
L0.656250 9zM14 12.281250L3.25 12.281250
L14 30.343750z"/>
</defs>
<g style="fill: #000000; opacity: 1" transform="translate(333.545475,178.306934)scale(0.400000,-0.400000)">
<use xlink:href="#URW_Palladio_L_Roman-51" y="48.943743" transform="scale(0.757155)"/>
<use xlink:href="#URW_Palladio_L_Roman-50" y="0.324994" transform="scale(0.757155)"/>
<path d="M0 28.888662L18.928879 28.888662L18.928879 30.881174
L0 30.881174L0 28.888662z"/>
</g><!-- style -->
</g>
</g>
<g id="ytick4">
<g id="line2d13">
<path style="fill: none; stroke: #000000; stroke-width: 1; stroke-linejoin: round; stroke-linecap: square;  opacity: 1" clip-path="url(#p91050d1cdd555b86f61031037728a0dc)" d="M380.16 216L380.059998 210.270899L379.760114 204.548777
L379.260714 198.840607L378.562406 193.153344L377.666041 187.493915
L376.572710 181.869217L375.283746 176.286102L373.800720 170.751372
L372.125438 165.271770L370.259941 159.853973L368.206502 154.504582
L365.967622 149.230113L363.546031 144.036993L360.944677 138.931548
L358.166730 133.920000L355.215575 129.008454L352.094808 124.202893
L348.808230 119.509173L345.359845 114.933012L341.753856 110.479986
L337.994655 106.155520L334.086822 101.964882L330.035118 97.913178
L325.844480 94.005345L321.520014 90.246144L317.066988 86.640155
L312.490827 83.191770L307.797107 79.905192L302.991546 76.784425
L298.08 73.833270L293.068452 71.055323L287.963007 68.453969
L282.769887 66.032378L277.495418 63.793498L272.146027 61.740059
L266.728230 59.874562L261.248628 58.199280L255.713898 56.716254
L250.130783 55.427290L244.506085 54.333959L238.846656 53.437594
L233.159393 52.739286L227.451223 52.239886L221.729101 51.940002
L216 51.840000L210.270899 51.940002L204.548777 52.239886
L198.840607 52.739286L193.153344 53.437594L187.493915 54.333959
L181.869217 55.427290L176.286102 56.716254L170.751372 58.199280
L165.271770 59.874562L159.853973 61.740059L154.504582 63.793498
L149.230113 66.032378L144.036993 68.453969L138.931548 71.055323
L133.92 73.833270L129.008454 76.784425L124.202893 79.905192
L119.509173 83.191770L114.933012 86.640155L110.479986 90.246144
L106.155520 94.005345L101.964882 97.913178L97.913178 101.964882
L94.005345 106.155520L90.246144 110.479986L86.640155 114.933012
L83.191770 119.509173L79.905192 124.202893L76.784425 129.008454
L73.833270 133.920000L71.055323 138.931548L68.453969 144.036993
L66.032378 149.230113L63.793498 154.504582L61.740059 159.853973
L59.874562 165.271770L58.199280 170.751372L56.716254 176.286102
L55.427290 181.869217L54.333959 187.493915L53.437594 193.153344
L52.739286 198.840607L52.239886 204.548777L51.940002 210.270899
L51.84 216L51.940002 221.729101L52.239886 227.451223
L52.739286 233.159393L53.437594 238.846656L54.333959 244.506085
L55.427290 250.130783L56.716254 255.713898L58.199280 261.248628
L59.874562 266.728230L61.740059 272.146027L63.793498 277.495418
L66.032378 282.769887L68.453969 287.963007L71.055323 293.068452
L73.833270 298.080000L76.784425 302.991546L79.905192 307.797107
L83.191770 312.490827L86.640155 317.066988L90.246144 321.520014
L94.005345 325.844480L97.913178 330.035118L101.964882 334.086822
L106.155520 337.994655L110.479986 341.753856L114.933012 345.359845
L119.509173 348.808230L124.202893 352.094808L129.008454 355.215575
L133.92 358.166730L138.931548 360.944677L144.036993 363.546031
L149.230113 365.967622L154.504582 368.206502L159.853973 370.259941
L165.271770 372.125438L170.751372 373.800720L176.286102 375.283746
L181.869217 376.572710L187.493915 377.666041L193.153344 378.562406
L198.840607 379.260714L204.548777 379.760114L210.270899 380.059998
L216 380.160000L221.729101 380.059998L227.451223 379.760114
L233.159393 379.260714L238.846656 378.562406L244.506085 377.666041
L250.130783 376.572710L255.713898 375.283746L261.248628 373.800720
L266.728230 372.125438L272.146027 370.259941L277.495418 368.206502
L282.769887 365.967622L287.963007 363.546031L293.068452 360.944677
L298.08 358.166730L302.991546 355.215575L307.797107 352.094808
L312.490827 348.808230L317.066988 345.359845L321.520014 341.753856
L325.844480 337.994655L330.035118 334.086822L334.086822 330.035118
L337.994655 325.844480L341.753856 321.520014L345.359845 317.066988
L348.808230 312.490827L352.094808 307.797107L355.215575 302.991546
L358.166730 298.080000L360.944677 293.068452L363.546031 287.963007
L365.967622 282.769887L368.206502 277.495418L370.259941 272.146027
L372.125438 266.728230L373.800720 261.248628L375.283746 255.713898
L376.572710 250.130783L377.666041 244.506085L378.562406 238.846656
L379.260714 233.159393L379.760114 227.451223L380.059998 221.729101
L380.16 216L380.16 216"/>
</g>
<g id="text12">
<defs>
<path id="URW_Palladio_L_Roman-48" d="M13.156250 35
C5.406250 35 1.453125 28.75 1.453125 16.468750
C1.453125 10.531250 2.50 5.390625 4.25 2.906250
C6 0.406250 8.796875 -1 11.906250 -1
C19.453125 -1 23.25 5.593750 23.25 18.609375
C23.25 29.718750 20 35 13.156250 35
M12.25 33.218750
C17.093750 33.218750 19.046875 28.25 19.046875 16.0625
C19.046875 5.25 17.156250 0.781250 12.546875 0.781250
C7.703125 0.781250 5.656250 5.906250 5.656250 18.296875
C5.656250 29 7.50 33.218750 12.25 33.218750"/>
<path id="URW_Palladio_L_Roman-49" d="M3.343750 28.500000L3.843750 28.500000L10.296875 31.4375
C10.343750 31.50 10.406250 31.50 10.453125 31.50
C10.75 31.50 10.843750 31.031250 10.843750 29.8125
L10.843750 4.875000C10.843750 2.203125 10.296875 1.640625 7.593750 1.640625
L4.796875 1.640625L4.796875 0
C12.50 0 12.50 0 13.046875 0
C13.703125 0 14.796875 0 16.50 0
C17.093750 0 18.843750 0 20.906250 0
L20.906250 1.640625L18.296875 1.640625
C15.546875 1.640625 15.046875 2.203125 15.046875 4.875
L15.046875 35.328125L14.343750 35.593750
C11.093750 33.843750 7.546875 32.328125 3 30.687500z"/>
<path id="URW_Palladio_L_Roman-55" d="M2.796875 0.515625L3.25 -0.156250
C5.203125 0 5.203125 0 5.546875 0
C5.906250 0 5.906250 0 7.843750 -0.156250
C9.953125 5.4375 12.406250 10.796875 15.703125 16.968750
L24.843750 33.859375L24.843750 35.234375
C19.453125 35.234375 17.703125 35.234375 13.656250 35.234375
C10 35.234375 7.546875 35.234375 2.703125 35.234375
L2.203125 35.125
C2.343750 30.265625 2.343750 30.265625 2.343750 29.734375
C2.343750 29.171875 2.343750 29.171875 2.203125 24.515625
L3.703125 24.515625L4.046875 27.390625
C4.453125 30.578125 4.796875 31 7.093750 31
L20.453125 31
C18.453125 26.781250 16.906250 23.796875 15 20.656250z"/>
<path id="Pazo_Math_Italic-112" d="M4.796875 16.984375L5.25 17.3125
C6.296875 20.234375 8.296875 20.390625 11.156250 20.390625
C11.75 20.390625 12.656250 20.390625 13.703125 20.390625
C9.50 9.140625 7.593750 5.718750 3.546875 -0.546875L4 -1
L7.703125 0.265625
C9.50 4.093750 12.546875 11.531250 15.296875 20.140625
L24.593750 20.140625
C23.75 17.046875 20.843750 8.046875 20.843750 4.859375
C20.843750 -0.359375 22.75 -1 24.296875 -1
C26.843750 -1 28.296875 -0.359375 31.453125 2.281250
L31.046875 3.218750L29.843750 2.375
C30 2.484375 28.546875 1.343750 27.703125 1.343750
C25.343750 1.343750 24.656250 2.781250 24.656250 5.859375
C24.656250 7.109375 24.75 8.453125 25.046875 9.906250
C25.906250 14.015625 26.75 18.109375 27.203125 20.140625
C28.343750 20.140625 29.50 20.140625 30.656250 20.140625
C31.546875 20.140625 32.656250 20.656250 33.453125 20.953125
C34 22.015625 34.203125 22.109375 35.156250 23.343750
L34.796875 23.953125
C33.453125 23.50 31.203125 23 29.546875 23
C28.953125 23 27.703125 23 26.453125 23
C21.093750 23 12.843750 23 10.656250 23
C6.906250 23 5.546875 21.468750 4.093750 17.375000z"/>
<path id="URW_Palladio_L_Roman-51" d="M2.156250 25.531250L3.703125 25.531250L4.593750 28.453125
C5.156250 30.218750 8.296875 32 10.906250 32
C14.156250 32 16.796875 29.218750 16.796875 25.9375
C16.796875 22.015625 13.843750 18.734375 10.296875 18.734375
C9.906250 18.734375 9.343750 18.734375 8.703125 18.734375
L7.953125 18.734375L7.343750 16.187500L7.703125 15.875
C9.593750 16.734375 10.546875 17 11.906250 17
C16.046875 17 18.453125 14.296875 18.453125 9.671875
C18.453125 4.50 15.406250 1.093750 10.75 1.093750
C8.453125 1.093750 6.406250 1.859375 4.906250 3.281250
C3.703125 4.406250 3.046875 5.5625 2.093750 8.312500L0.75 7.796875
C1.796875 4.6875 2.203125 2.859375 2.50 0.328125
C5.156250 -0.593750 7.343750 -1 9.203125 -1
C13.203125 -1 17.796875 1.281250 20.546875 4.6875
C22.25 6.781250 23.093750 9.031250 23.093750 11.421875
C23.093750 13.859375 22.093750 15.984375 20.296875 17.265625
C19.046875 18.171875 17.906250 18.578125 15.406250 19.046875
C19.406250 22.265625 20.906250 24.656250 20.906250 27.734375
C20.906250 32.359375 17.203125 35.421875 11.656250 35.421875
C8.25 35.421875 6 34.4375 3.593750 31.953125z"/>
<path id="URW_Palladio_L_Roman-50" d="M0.796875 1.281250L0.796875 0
C10.156250 0 10.156250 0 11.953125 0
C13.75 0 13.75 0 23.406250 0
C23.296875 1.015625 23.296875 1.484375 23.296875 2.156250
C23.296875 2.781250 23.296875 3.265625 23.406250 4.3125
C17.656250 4.3125 15.343750 4.3125 6.093750 4.3125
L15.203125 13.984375
C20.046875 19.156250 21.546875 21.921875 21.546875 25.671875
C21.546875 31.453125 17.656250 35 11.296875 35
C7.703125 35 5.25 34 2.796875 31.453125
L1.953125 24.562500L3.406250 24.562500L4.046875 26.875
C4.843750 29.796875 6.656250 31.0625 10 31.0625
C14.296875 31.0625 17.046875 28.328125 17.046875 24.031250
C17.046875 20.234375 14.953125 16.50 9.296875 10.437500z"/>
<path id="URW_Palladio_L_Roman-53" d="M6.343750 30.703125
C12.796875 30.703125 15.593750 30.703125 21.593750 30.703125
L21.843750 30.859375
C21.75 31.781250 21.75 32.1875 21.75 32.859375
C21.75 33.5625 21.75 33.968750 21.843750 34.890625
L21.593750 35
C17.843750 35 15.593750 35 12.906250 35
C10.156250 35 7.953125 35 4.203125 35
L3.953125 34.890625
C4 31.8125 4.046875 29.593750 4.046875 27.984375
C4.046875 23.703125 3.906250 18.875 3.75 16.640625
L4.75 16.328125
C7.093750 18.765625 8.453125 19.484375 10.906250 19.484375
C15.703125 19.484375 18.703125 15.968750 18.703125 10.375
C18.703125 4.656250 15.50 1.296875 10.046875 1.296875
C7.343750 1.296875 4.843750 2.234375 4.156250 3.578125L1.843750 7.8125
L0.656250 7.078125C1.796875 4.140625 2.406250 2.484375 3.093750 0.218750
C4.50 -0.546875 6.50 -1 8.656250 -1
C12 -1 15.546875 0.484375 18.296875 2.968750
C21.343750 5.734375 22.953125 9.25 22.953125 13.046875
C22.953125 18.890625 18.906250 23 13.203125 23
C10.796875 23 9 22.343750 5.906250 20.453125z"/>
<path id="URW_Palladio_L_Roman-52" d="M14 9L14 5.265625
C14 2.296875 13.453125 1.593750 11 1.593750L7.906250 1.593750
L7.906250 0C14.546875 0 14.546875 0 15.75 0
C16.953125 0 16.953125 0 23.593750 0
L23.593750 1.593750L21.203125 1.593750
C18.75 1.593750 18.203125 2.25 18.203125 5.25
L18.203125 9
C21.156250 9 22.203125 9 23.593750 8.859375
L23.593750 12.484375
C21.25 12.281250 20.296875 12.281250 19.546875 12.281250
L19.406250 12.281250L18.203125 12.281250L18.203125 19.406250
C18.203125 28.531250 18.296875 32.953125 18.546875 35.046875
L17.953125 35.312500L14.25 33.921875L0.093750 10.171875
L0.656250 9zM14 12.281250L3.25 12.281250
L14 30.343750z"/>
</defs>
<g style="fill: #000000; opacity: 1" transform="translate(370.265947,156.881890)scale(0.400000,-0.400000)">
<use xlink:href="#URW_Palladio_L_Roman-50" y="0.325012" transform="scale(0.996264)"/>
</g><!-- style -->
</g>
</g>
</g>
<g id="patch3">
<path style="fill: none; stroke: #000000; stroke-width: 1; stroke-linejoin: round; stroke-linecap: square;  opacity: 1"  d="M216 380.16
C259.535741 380.16 301.294232 362.863067 332.078649 332.078649
C362.863067 301.294232 380.16 259.535741 380.16 216
C380.16 172.464259 362.863067 130.705768 332.078649 99.921351
C301.294232 69.136933 259.535741 51.84 216 51.84
C172.464259 51.84 130.705768 69.136933 99.921351 99.921351
C69.136933 130.705768 51.84 172.464259 51.84 216
C51.84 259.535741 69.136933 301.294232 99.921351 332.078649
C130.705768 362.863067 172.464259 380.16 216 380.160000z"/>
</g>
<g id="text13">
<defs>
<path id="CMR10-61" d="M34.343750 16.9375
C35.093750 16.9375 36.046875 16.9375 36.046875 17.968750
C36.046875 19 35.093750 19 34.406250 19
L4.453125 19
C3.75 19 2.796875 19 2.796875 17.968750
C2.796875 16.9375 3.75 16.9375 4.50 16.937500z
M34.406250 7
C35.093750 7 36.046875 7 36.046875 8.031250
C36.046875 9.046875 35.093750 9.046875 34.343750 9.046875L4.50 9.046875
C3.75 9.046875 2.796875 9.046875 2.796875 8.031250
C2.796875 7 3.75 7 4.453125 7z"/>
<path id="Pazo_Math_Italic-114" d="M4.75 1.843750
C5.796875 -0.046875 7.593750 -1 10.093750 -1
C12.75 -1 15.703125 0.265625 17.906250 2.328125
C21.093750 5.3125 23.343750 11.078125 23.343750 16.265625
C23.343750 21.015625 20.843750 23.890625 16.75 23.890625
C14.593750 23.890625 12.453125 23.140625 10.25 21.625
C8.546875 20.484375 7.156250 18.968750 6.093750 17.156250
C5.343750 16.046875 4.75 14.781250 4.25 13.578125
C3 10.609375 2.296875 7.531250 1.75 4.468750
C0.843750 -0.8125 0.25 -8.625 -0.343750 -13.859375
L0.406250 -14.25
C1.656250 -13.859375 2.593750 -13.609375 4 -13.406250
C3.906250 -11.953125 3.843750 -10.046875 3.843750 -8.046875
C3.843750 -4.546875 4 -0.75 4.343750 1.796875z
M14.796875 22
C17.953125 22 19.546875 19.765625 19.546875 15.515625
C19.546875 10.609375 18 5.25 15.796875 2.5625
C14.906250 1.50 13.593750 0.890625 12.093750 0.890625
C9.093750 0.890625 7.453125 3.171875 7.453125 7.171875
C7.453125 12.890625 9.406250 19.109375 11.843750 21.125
C12.50 21.703125 13.593750 22 14.796875 22"/>
<path id="URW_Palladio_L_Roman-48" d="M13.156250 35
C5.406250 35 1.453125 28.75 1.453125 16.468750
C1.453125 10.531250 2.50 5.390625 4.25 2.906250
C6 0.406250 8.796875 -1 11.906250 -1
C19.453125 -1 23.25 5.593750 23.25 18.609375
C23.25 29.718750 20 35 13.156250 35
M12.25 33.218750
C17.093750 33.218750 19.046875 28.25 19.046875 16.0625
C19.046875 5.25 17.156250 0.781250 12.546875 0.781250
C7.703125 0.781250 5.656250 5.906250 5.656250 18.296875
C5.656250 29 7.50 33.218750 12.25 33.218750"/>
<path id="URW_Palladio_L_Roman-49" d="M3.343750 28.500000L3.843750 28.500000L10.296875 31.4375
C10.343750 31.50 10.406250 31.50 10.453125 31.50
C10.75 31.50 10.843750 31.031250 10.843750 29.8125
L10.843750 4.875000C10.843750 2.203125 10.296875 1.640625 7.593750 1.640625
L4.796875 1.640625L4.796875 0
C12.50 0 12.50 0 13.046875 0
C13.703125 0 14.796875 0 16.50 0
C17.093750 0 18.843750 0 20.906250 0
L20.906250 1.640625L18.296875 1.640625
C15.546875 1.640625 15.046875 2.203125 15.046875 4.875
L15.046875 35.328125L14.343750 35.593750
C11.093750 33.843750 7.546875 32.328125 3 30.687500z"/>
<path id="URW_Palladio_L_Roman-55" d="M2.796875 0.515625L3.25 -0.156250
C5.203125 0 5.203125 0 5.546875 0
C5.906250 0 5.906250 0 7.843750 -0.156250
C9.953125 5.4375 12.406250 10.796875 15.703125 16.968750
L24.843750 33.859375L24.843750 35.234375
C19.453125 35.234375 17.703125 35.234375 13.656250 35.234375
C10 35.234375 7.546875 35.234375 2.703125 35.234375
L2.203125 35.125
C2.343750 30.265625 2.343750 30.265625 2.343750 29.734375
C2.343750 29.171875 2.343750 29.171875 2.203125 24.515625
L3.703125 24.515625L4.046875 27.390625
C4.453125 30.578125 4.796875 31 7.093750 31
L20.453125 31
C18.453125 26.781250 16.906250 23.796875 15 20.656250z"/>
<path id="Pazo_Math_Italic-113" d="M15.843750 35
C13.703125 35 11.50 33.953125 9.203125 31.718750
C4.75 27.468750 1.453125 19.953125 1.453125 10.765625
C1.453125 2.828125 3.046875 -1 7.25 -1
C9.906250 -1 13 0.843750 15.343750 3.828125
C18.75 8.171875 21.843750 16.406250 21.843750 23.9375
C21.843750 30.875 19.953125 35 15.843750 35
M11.546875 16
C14.953125 16 16.343750 15.843750 17.203125 15.453125
C16.093750 10.421875 14.25 5.9375 12.656250 3.328125
C11.656250 1.796875 10.296875 0.890625 8.796875 0.890625
C5.796875 0.890625 5.25 4.734375 5.25 10.671875
C5.25 12.218750 5.343750 13.796875 5.593750 15.406250
C6.656250 15.843750 8 16 11.546875 16
M14.593750 33.109375
C17.75 33.109375 18.046875 29.015625 18.046875 22.828125
C18.046875 21.4375 17.953125 20 17.75 18.593750
C16.75 18.25 15.203125 18.093750 11.906250 18.093750
C8.50 18.093750 7.046875 18.25 6.156250 18.593750
C7.453125 24.484375 9.75 29.875 11.546875 31.953125
C12.25 32.703125 13.406250 33.109375 14.593750 33.109375"/>
<path id="Pazo_Math_Italic-112" d="M4.796875 16.984375L5.25 17.3125
C6.296875 20.234375 8.296875 20.390625 11.156250 20.390625
C11.75 20.390625 12.656250 20.390625 13.703125 20.390625
C9.50 9.140625 7.593750 5.718750 3.546875 -0.546875L4 -1
L7.703125 0.265625
C9.50 4.093750 12.546875 11.531250 15.296875 20.140625
L24.593750 20.140625
C23.75 17.046875 20.843750 8.046875 20.843750 4.859375
C20.843750 -0.359375 22.75 -1 24.296875 -1
C26.843750 -1 28.296875 -0.359375 31.453125 2.281250
L31.046875 3.218750L29.843750 2.375
C30 2.484375 28.546875 1.343750 27.703125 1.343750
C25.343750 1.343750 24.656250 2.781250 24.656250 5.859375
C24.656250 7.109375 24.75 8.453125 25.046875 9.906250
C25.906250 14.015625 26.75 18.109375 27.203125 20.140625
C28.343750 20.140625 29.50 20.140625 30.656250 20.140625
C31.546875 20.140625 32.656250 20.656250 33.453125 20.953125
C34 22.015625 34.203125 22.109375 35.156250 23.343750
L34.796875 23.953125
C33.453125 23.50 31.203125 23 29.546875 23
C28.953125 23 27.703125 23 26.453125 23
C21.093750 23 12.843750 23 10.656250 23
C6.906250 23 5.546875 21.468750 4.093750 17.375000z"/>
<path id="URW_Palladio_L_Roman-51" d="M2.156250 25.531250L3.703125 25.531250L4.593750 28.453125
C5.156250 30.218750 8.296875 32 10.906250 32
C14.156250 32 16.796875 29.218750 16.796875 25.9375
C16.796875 22.015625 13.843750 18.734375 10.296875 18.734375
C9.906250 18.734375 9.343750 18.734375 8.703125 18.734375
L7.953125 18.734375L7.343750 16.187500L7.703125 15.875
C9.593750 16.734375 10.546875 17 11.906250 17
C16.046875 17 18.453125 14.296875 18.453125 9.671875
C18.453125 4.50 15.406250 1.093750 10.75 1.093750
C8.453125 1.093750 6.406250 1.859375 4.906250 3.281250
C3.703125 4.406250 3.046875 5.5625 2.093750 8.312500L0.75 7.796875
C1.796875 4.6875 2.203125 2.859375 2.50 0.328125
C5.156250 -0.593750 7.343750 -1 9.203125 -1
C13.203125 -1 17.796875 1.281250 20.546875 4.6875
C22.25 6.781250 23.093750 9.031250 23.093750 11.421875
C23.093750 13.859375 22.093750 15.984375 20.296875 17.265625
C19.046875 18.171875 17.906250 18.578125 15.406250 19.046875
C19.406250 22.265625 20.906250 24.656250 20.906250 27.734375
C20.906250 32.359375 17.203125 35.421875 11.656250 35.421875
C8.25 35.421875 6 34.4375 3.593750 31.953125z"/>
<path id="URW_Palladio_L_Roman-50" d="M0.796875 1.281250L0.796875 0
C10.156250 0 10.156250 0 11.953125 0
C13.75 0 13.75 0 23.406250 0
C23.296875 1.015625 23.296875 1.484375 23.296875 2.156250
C23.296875 2.781250 23.296875 3.265625 23.406250 4.3125
C17.656250 4.3125 15.343750 4.3125 6.093750 4.3125
L15.203125 13.984375
C20.046875 19.156250 21.546875 21.921875 21.546875 25.671875
C21.546875 31.453125 17.656250 35 11.296875 35
C7.703125 35 5.25 34 2.796875 31.453125
L1.953125 24.562500L3.406250 24.562500L4.046875 26.875
C4.843750 29.796875 6.656250 31.0625 10 31.0625
C14.296875 31.0625 17.046875 28.328125 17.046875 24.031250
C17.046875 20.234375 14.953125 16.50 9.296875 10.437500z"/>
<path id="URW_Palladio_L_Roman-53" d="M6.343750 30.703125
C12.796875 30.703125 15.593750 30.703125 21.593750 30.703125
L21.843750 30.859375
C21.75 31.781250 21.75 32.1875 21.75 32.859375
C21.75 33.5625 21.75 33.968750 21.843750 34.890625
L21.593750 35
C17.843750 35 15.593750 35 12.906250 35
C10.156250 35 7.953125 35 4.203125 35
L3.953125 34.890625
C4 31.8125 4.046875 29.593750 4.046875 27.984375
C4.046875 23.703125 3.906250 18.875 3.75 16.640625
L4.75 16.328125
C7.093750 18.765625 8.453125 19.484375 10.906250 19.484375
C15.703125 19.484375 18.703125 15.968750 18.703125 10.375
C18.703125 4.656250 15.50 1.296875 10.046875 1.296875
C7.343750 1.296875 4.843750 2.234375 4.156250 3.578125L1.843750 7.8125
L0.656250 7.078125C1.796875 4.140625 2.406250 2.484375 3.093750 0.218750
C4.50 -0.546875 6.50 -1 8.656250 -1
C12 -1 15.546875 0.484375 18.296875 2.968750
C21.343750 5.734375 22.953125 9.25 22.953125 13.046875
C22.953125 18.890625 18.906250 23 13.203125 23
C10.796875 23 9 22.343750 5.906250 20.453125z"/>
<path id="URW_Palladio_L_Roman-52" d="M14 9L14 5.265625
C14 2.296875 13.453125 1.593750 11 1.593750L7.906250 1.593750
L7.906250 0C14.546875 0 14.546875 0 15.75 0
C16.953125 0 16.953125 0 23.593750 0
L23.593750 1.593750L21.203125 1.593750
C18.75 1.593750 18.203125 2.25 18.203125 5.25
L18.203125 9
C21.156250 9 22.203125 9 23.593750 8.859375
L23.593750 12.484375
C21.25 12.281250 20.296875 12.281250 19.546875 12.281250
L19.406250 12.281250L18.203125 12.281250L18.203125 19.406250
C18.203125 28.531250 18.296875 32.953125 18.546875 35.046875
L17.953125 35.312500L14.25 33.921875L0.093750 10.171875
L0.656250 9zM14 12.281250L3.25 12.281250
L14 30.343750z"/>
</defs>
<g style="fill: #000000; opacity: 1" transform="translate(38,48)scale(0.400000,-0.400000)">
<use xlink:href="#Pazo_Math_Italic-114" y="17.667969" transform="scale(0.996264)"/>
<use xlink:href="#CMR10-61" x="38.520952" y="16.955827" transform="scale(1.038107)"/>
<use xlink:href="#URW_Palladio_L_Roman-49" x="144.979802" y="49.168731" transform="scale(0.757155)"/>
<use xlink:href="#URW_Palladio_L_Roman-50" x="126.780071" y="0.549983" transform="scale(0.757155)"/>
<use xlink:href="#Pazo_Math_Italic-112" x="152.405043" y="0.549983" transform="scale(0.757155)"/>
<use xlink:href="#Pazo_Math_Italic-113" x="144.840378" y="17.667969" transform="scale(0.996264)"/>
<path d="M95.992187 29.059013L142.481092 29.059013L142.481092 31.051526
L95.992187 31.051526L95.992187 29.059013z"/>
</g><!-- style -->
</g>
</g>
</g>
</svg>
