<?xml version="1.0" encoding="UTF-8"?>
<svg width="650" height="600" version="1.1" xmlns="http://www.w3.org/2000/svg">
 <g stroke="#ccc">
  <path d="m299.99 20.19v559.62"/>
  <path d="m19.385 275.06 611.23 2e-4"/>
 </g>
 <path d="m299.99 275.06c4.0964-1.2343 7.1648-4.2596 8.1319-8.1317 1.1551-6.881-2.9475-12.587-8.1318-15.868-8.1863-4.6975-17.727-4.8501-25.809-1.8094-11.607 4.9324-19.58 14.846-23.191 25.809-4.6053 14.332-2.1176 30.511 5.513 43.487 9.2382 15.71 25.666 26.696 43.487 30.513 20.942 4.485 43.508-0.71315 61.165-12.835 20.324-13.954 34.096-36.796 37.835-61.165 4.2004-27.375-4.0922-56.096-20.865-78.135-18.669-24.532-47.572-40.838-78.135-44.865-33.809-4.4548-69.066 6.0324-95.813 27.187-29.288 23.165-48.188 58.686-52.187 95.813-4.3471 40.365 8.775 82.091 34.509 113.49 27.799 33.919 69.819 55.504 113.49 59.509 46.912 4.3029 95.101-11.527 131.17-41.832 38.579-32.415 62.987-80.926 66.832-131.17 4.081-53.326-14.85-107.71-49.861-148.14-37.064-42.8-91.671-69.747-148.14-73.861-59.749-4.3535-120.7 16.773-165.82 56.183-47.572 41.553-77.119 102.78-81.183 165.82-4.2749 66.294 19.502 133.73 63.506 183.49 46.17 52.217 113.91 84.474 183.49 88.506 72.83 4.2195 146.68-22.321 201.17-70.828 56.977-50.722 92.344-124.97 95.828-201.17" fill="none" stroke="#f00" stroke-width="3"/>
</svg>